<?xml version="1.0" encoding="utf-8"?>
<!-- Generator: Adobe Illustrator 14.0.0, SVG Export Plug-In . SVG Version: 6.00 Build 43363)  -->
<!DOCTYPE svg PUBLIC "-//W3C//DTD SVG 1.1//EN" "http://www.w3.org/Graphics/SVG/1.1/DTD/svg11.dtd">
<svg version="1.1" id="Capa_1" xmlns="http://www.w3.org/2000/svg" xmlns:xlink="http://www.w3.org/1999/xlink" x="0px" y="0px"
	 width="295.016px" height="134.725px" viewBox="0 0 295.016 134.725" enable-background="new 0 0 295.016 134.725"
	 xml:space="preserve">
<g>
	<g>
		<path fill="#FFFFFF" d="M122.032,62.18c-0.318,0.118-5.257,1.66-7.508,2.375c0.701-4.341,0.976-11.96-0.84-17.382
			c0.545-0.097,1.052-0.205,1.491-0.311c0.332-0.073,0.594-0.369,0.618-0.726c0.601-6.833-1.222-14.07-5.152-21.287
			c-4.283-7.872-9.843-14.118-16.783-16.973c-0.357-0.143-0.761-0.023-0.986,0.279c-0.394,0.545-0.966,1.31-1.603,2.163
			c-4.002-2.678-10.754-5.695-19.668-5.695c-8.688,0-15.712,3.12-19.6,5.695c-0.547-0.73-1.026-1.376-1.38-1.845
			c-0.214-0.31-0.625-0.425-0.978-0.283c-6.952,2.851-12.495,8.786-16.769,16.658c-3.923,7.217-5.772,14.505-5.171,21.337
			c0.037,0.35,0.284,0.641,0.634,0.729c0.412,0.108,0.904,0.199,1.427,0.305c-1.879,5.375-1.97,12.745-1.31,17.007
			c-0.15-0.031-0.29-0.071-0.402-0.097c-6.372-1.635-6.392-1.635-6.562-1.635c-0.373,0-0.693,0.253-0.791,0.604
			c-1.607,5.918-0.372,26.796,11.625,42.482c6.186,8.074,14.813,13.714,24.643,16.434c-0.602,1.233-1.52,2.971-2.073,3.937
			c-0.111,0.211-0.123,0.479-0.021,0.698c0.111,0.215,0.367,0.2,0.59,0.236c3.091,0.445,8.115,1.356,8.556,1.367
			c0.331,0.075,0.723-0.062,0.978-0.329c0.51-0.556,1.094-2.107,1.652-4.144c1.665,0.123,3.947,0.04,5.697,0.04h0.021
			c1.435,0,3.518,0.106,4.901,0.012c0.559,2.008,1.129,3.536,1.64,4.092c0.25,0.268,0.638,0.404,0.976,0.329
			c0.429-0.01,5.094-0.983,8.182-1.437c0.233-0.033,0.487-0.017,0.589-0.243c0.115-0.22,0.096-0.478-0.015-0.684
			c-0.541-0.946-1.441-2.512-2.017-3.716c9.496-2.7,18.207-8.477,24.384-16.627c12.497-16.497,13.496-38.02,12.147-42.831
			L122.032,62.18z"/>
		<path d="M94.297,16.44c0.24,0.125,0.507,0.212,0.76,0.235c0.033,0.007,0.062,0.007,0.101,0.007c0.231,0,0.462-0.067,0.705-0.187
			c0.256-0.134,0.521-0.377,0.795-0.716c0.281-0.338,0.442-0.653,0.535-0.936c0.072-0.287,0.075-0.564,0.013-0.812
			c-0.073-0.254-0.216-0.481-0.409-0.695c-0.181-0.194-0.391-0.401-0.634-0.584l-0.645-0.521l-2.577,3.21l0.634,0.496
			C93.818,16.122,94.058,16.299,94.297,16.44 M95.827,13.226l0.161,0.122c0.182,0.148,0.301,0.289,0.366,0.439
			c0.068,0.138,0.095,0.278,0.083,0.426c-0.015,0.141-0.073,0.306-0.148,0.465c-0.091,0.167-0.206,0.343-0.356,0.52
			c-0.334,0.417-0.648,0.653-0.938,0.703c-0.059,0.006-0.106,0.013-0.145,0.013c-0.248,0-0.503-0.106-0.76-0.309l-0.096-0.088
			L95.827,13.226z"/>
		<polygon points="97.082,19.187 97.52,18.749 96.475,17.707 97.363,16.84 98.075,17.569 98.503,17.148 97.797,16.415
			98.534,15.698 99.49,16.683 99.949,16.239 98.369,14.632 95.441,17.508 		"/>
		<polygon points="100.25,23.151 100.76,22.772 99.884,21.622 102.652,19.521 102.11,18.807 98.836,21.287 		"/>
		<path d="M100.692,23.808l1.272-0.31l0.66,1.003l-0.768,1.074l0.514,0.8l2.536-3.625l-0.341-0.529l-4.296,0.954L100.692,23.808z
			 M103.623,23.128l-0.63,0.868l-0.414-0.634L103.623,23.128z"/>
		<path d="M104.22,29.72l1.611-0.812l0.031,0.072c0.085,0.152,0.168,0.314,0.261,0.475c0.104,0.184,0.229,0.335,0.376,0.46
			c0.143,0.14,0.319,0.226,0.514,0.269c0.062,0.004,0.095,0.011,0.153,0.011c0.168,0,0.344-0.05,0.538-0.145
			c0.243-0.128,0.421-0.283,0.509-0.467c0.097-0.177,0.13-0.366,0.111-0.562c-0.015-0.181-0.063-0.372-0.147-0.561
			c-0.075-0.167-0.153-0.332-0.236-0.488l-0.449-0.89l-0.173,0.093c0,0-0.443,0.223-0.515,0.265l-2.972,1.515L104.22,29.72z
			 M107.364,28.124l0.133,0.272c0.094,0.189,0.132,0.356,0.101,0.489c-0.017,0.13-0.128,0.235-0.31,0.332
			c-0.121,0.067-0.213,0.101-0.334,0.094c-0.078,0-0.146-0.027-0.212-0.08c-0.066-0.041-0.126-0.12-0.186-0.21
			c-0.057-0.104-0.128-0.203-0.173-0.326l-0.03-0.056L107.364,28.124z"/>
		<polygon points="106.137,33.952 106.724,33.709 106.17,32.368 109.359,31.013 109.006,30.188 105.224,31.798 		"/>
		<path d="M106.469,34.847l1.324,0.026l0.384,1.125l-1.022,0.854l0.304,0.903l3.367-2.865l-0.201-0.601l-4.396-0.16L106.469,34.847z
			 M109.482,34.94l-0.822,0.675l-0.24-0.725L109.482,34.94z"/>
		<polygon points="110.979,37.483 107.59,38.351 107.811,39.178 111.192,38.338 111.489,39.493 112.089,39.329 111.285,36.174
			110.689,36.319 		"/>
		<path d="M108.125,40.583l1.295,0.25l0.185,1.168l-1.148,0.666l0.151,0.94l3.806-2.236l-0.102-0.645l-4.3-0.896L108.125,40.583z
			 M111.082,41.18l-0.931,0.534l-0.108-0.757L111.082,41.18z"/>
		<path d="M58.078,11.609l1.265,2.873l0.664-0.292l-1.074-2.432l2.516,1.793l0.707-0.302l-1.591-3.626l-0.665,0.296l0.984,2.225
			l-2.301-1.64l-0.831,0.36l0.075,0.174C57.825,11.038,58.038,11.516,58.078,11.609"/>
		<path d="M63.524,11.617l1.092-0.28l0.742,1.039l0.896-0.232L63.76,8.708l-0.6,0.152l-0.472,4.199l0.723-0.178L63.524,11.617z
			 M63.71,10.028l0.562,0.802l-0.682,0.181L63.71,10.028z"/>
		<path d="M66.286,10.864c0.103,0.271,0.236,0.486,0.411,0.659c0.169,0.172,0.379,0.308,0.61,0.397
			c0.178,0.079,0.38,0.101,0.58,0.101c0.053,0,0.104,0,0.176-0.002c0.095-0.02,0.189-0.025,0.296-0.052
			c0.093-0.023,0.188-0.046,0.268-0.066c0.077-0.026,0.143-0.047,0.203-0.058c0.066-0.026,0.113-0.036,0.136-0.048l0.128-0.07
			l-0.093-0.82l-0.257,0.158c-0.078,0.053-0.175,0.11-0.291,0.172c-0.103,0.057-0.24,0.097-0.401,0.124c-0.035,0-0.06,0-0.078,0
			c-0.122,0-0.236-0.021-0.333-0.078c-0.116-0.062-0.221-0.146-0.304-0.269c-0.09-0.134-0.168-0.289-0.225-0.472
			c-0.058-0.192-0.096-0.406-0.116-0.632c-0.017-0.217-0.027-0.417-0.017-0.584c0-0.156,0.017-0.279,0.05-0.39
			c0.046-0.087,0.095-0.166,0.173-0.218c0.077-0.067,0.203-0.103,0.373-0.112c0.084-0.013,0.163-0.019,0.249-0.013
			c0.092,0,0.168,0.02,0.253,0.02c0.071,0.016,0.14,0.027,0.194,0.038c0.073,0.014,0.122,0.033,0.168,0.039l0.265,0.081l-0.09-0.787
			l-0.153-0.024c-0.083-0.002-0.208-0.01-0.349-0.01h-0.048c-0.143,0-0.292,0.008-0.449,0.022c-0.592,0.059-1.011,0.263-1.249,0.634
			c-0.231,0.34-0.328,0.829-0.264,1.442C66.13,10.347,66.188,10.626,66.286,10.864"/>
		<polygon points="70.646,11.769 70.398,7.832 69.557,7.877 69.821,11.823 		"/>
		<path d="M71.783,11.193c0.123,0.192,0.294,0.353,0.509,0.458c0.209,0.106,0.471,0.165,0.773,0.171h0.126
			c0.246-0.007,0.459-0.054,0.635-0.137c0.208-0.089,0.381-0.233,0.524-0.42c0.118-0.17,0.211-0.388,0.272-0.635
			c0.045-0.245,0.086-0.506,0.086-0.8c0.012-0.278-0.012-0.546-0.055-0.781c-0.052-0.246-0.126-0.466-0.246-0.648
			c-0.126-0.2-0.292-0.352-0.494-0.473c-0.209-0.103-0.464-0.161-0.773-0.172c-0.292,0-0.554,0.039-0.768,0.135
			c-0.213,0.097-0.384,0.238-0.507,0.427c-0.131,0.169-0.232,0.39-0.284,0.644c-0.065,0.23-0.085,0.504-0.102,0.803
			c0,0.28,0.025,0.538,0.067,0.774C71.582,10.787,71.662,11,71.783,11.193 M72.388,9.776c0-0.176,0.02-0.36,0.038-0.545
			c0.008-0.181,0.048-0.346,0.111-0.477c0.05-0.129,0.12-0.232,0.225-0.318c0.075-0.065,0.178-0.094,0.319-0.094h0.048
			c0.167,0,0.293,0.039,0.377,0.112c0.088,0.101,0.155,0.203,0.203,0.349c0.055,0.14,0.075,0.308,0.088,0.479
			c0.005,0.188,0.005,0.373,0.005,0.521c0,0.178-0.018,0.367-0.033,0.548c-0.015,0.176-0.05,0.339-0.108,0.479
			c-0.037,0.128-0.12,0.232-0.211,0.319c-0.088,0.059-0.187,0.093-0.321,0.104h-0.053c-0.169,0-0.294-0.057-0.384-0.127
			c-0.09-0.087-0.155-0.2-0.209-0.329c-0.048-0.159-0.075-0.321-0.09-0.494C72.388,10.104,72.386,9.934,72.388,9.776"/>
		<path d="M76.312,9.37l1.144,2.862l0.773,0.119l0.6-3.906l-0.72-0.103l-0.371,2.405l-1.051-2.626l-0.909-0.152l-0.03,0.188
			c0,0-0.062,0.516-0.087,0.622l-0.477,3.096l0.718,0.125L76.312,9.37z"/>
		<path d="M79.39,12.658l0.751-1.02l1.074,0.316l0.116,1.271l0.885,0.267l-0.379-4.23l-0.6-0.182l-2.557,3.365L79.39,12.658z
			 M81.114,10.358l0.077,0.992l-0.675-0.201L81.114,10.358z"/>
		<polygon points="84.91,13.98 83.641,13.423 84.969,10.375 84.175,10.028 82.597,13.645 84.668,14.547 		"/>
		<path d="M33.619,43.857h0.018c0.196,0,0.371-0.036,0.528-0.12c0.17-0.081,0.312-0.219,0.425-0.404
			c0.104-0.181,0.183-0.427,0.23-0.743c0.047-0.342,0.039-0.609-0.026-0.825c-0.062-0.22-0.176-0.394-0.324-0.527
			c-0.134-0.122-0.302-0.209-0.489-0.271c-0.161-0.037-0.331-0.075-0.51-0.101l-2.427-0.343l-0.12,0.777l2.492,0.351
			c0.126,0.009,0.246,0.039,0.382,0.062c0.104,0.023,0.183,0.056,0.274,0.12c0.062,0.053,0.12,0.132,0.167,0.228
			c0.024,0.073,0.048,0.2,0.012,0.442c-0.021,0.159-0.072,0.268-0.138,0.335c-0.071,0.068-0.159,0.123-0.249,0.136
			c-0.113,0.039-0.225,0.04-0.341,0.039c-0.124-0.009-0.24-0.025-0.333-0.039l-2.459-0.343l-0.116,0.852l2.431,0.327
			C33.251,43.845,33.438,43.857,33.619,43.857"/>
		<path d="M32.13,39.354l3.037,0.738l0.17-0.696l-2.576-0.637l2.954-0.904l0.178-0.747l-3.836-0.924l-0.172,0.704l2.367,0.563
			l-2.705,0.834l-0.204,0.89l0.17,0.04C31.514,39.215,32.021,39.334,32.13,39.354"/>
		<rect x="32.461" y="34.822" transform="matrix(0.9534 0.3017 -0.3017 0.9534 12.2375 -8.7465)" width="3.94" height="0.834"/>
		<polygon points="37.328,33.095 34.126,30.249 33.875,30.915 35.984,32.794 33.176,32.778 32.836,33.644 37.125,33.627 		"/>
		<polygon points="38.942,29.244 38.387,28.994 37.807,30.266 36.761,29.79 37.159,28.885 36.625,28.649 36.209,29.535
			35.338,29.132 35.882,27.927 35.317,27.668 34.404,29.641 37.997,31.302 		"/>
		<path d="M39.64,27.915l-1.52-0.845l2.047-0.097l0.467-0.848l-2.17,0.101c0.022-0.027,0.024-0.063,0.033-0.106
			c0.026-0.141,0.033-0.258,0.019-0.408c-0.027-0.135-0.075-0.264-0.159-0.377c-0.071-0.127-0.204-0.233-0.361-0.319
			c-0.178-0.106-0.369-0.16-0.554-0.16c-0.169,0-0.318,0.043-0.453,0.117c-0.123,0.077-0.254,0.182-0.359,0.324
			c-0.095,0.12-0.194,0.26-0.278,0.411l-0.571,1.036l3.457,1.907L39.64,27.915z M37.727,26.541c-0.04,0.082-0.088,0.164-0.12,0.251
			l-0.914-0.507l0.096-0.178c0.042-0.082,0.099-0.156,0.149-0.224c0.057-0.067,0.107-0.103,0.174-0.133
			c0.053-0.027,0.104-0.043,0.17-0.043h0.009c0.061,0,0.135,0.032,0.219,0.074c0.127,0.081,0.215,0.142,0.256,0.216
			c0.039,0.091,0.05,0.169,0.05,0.256C37.798,26.351,37.772,26.441,37.727,26.541"/>
		<path d="M38.375,24.25c0.182,0.123,0.364,0.178,0.534,0.178h0.034c0.169-0.009,0.347-0.037,0.509-0.102
			c0.159-0.067,0.309-0.142,0.454-0.232c0.135-0.099,0.278-0.162,0.401-0.224c0.126-0.063,0.243-0.099,0.354-0.111
			c0.083-0.011,0.173,0.012,0.251,0.067c0.143,0.089,0.218,0.195,0.231,0.317c0.017,0.126-0.032,0.274-0.145,0.448
			c-0.035,0.059-0.093,0.119-0.149,0.185c-0.063,0.063-0.116,0.119-0.18,0.165c-0.06,0.06-0.12,0.104-0.171,0.147
			c-0.056,0.041-0.121,0.081-0.16,0.105l-0.256,0.147l0.662,0.438l0.105-0.085c0.02-0.014,0.063-0.047,0.115-0.095
			c0.035-0.047,0.088-0.103,0.148-0.169c0.053-0.063,0.113-0.122,0.173-0.206c0.07-0.081,0.123-0.159,0.183-0.241
			c0.106-0.164,0.189-0.32,0.252-0.482c0.066-0.175,0.097-0.357,0.09-0.53c0-0.164-0.037-0.342-0.12-0.501
			c-0.082-0.148-0.22-0.3-0.397-0.419c-0.181-0.125-0.381-0.185-0.574-0.185c-0.186,0-0.367,0.038-0.535,0.096
			c-0.161,0.078-0.333,0.154-0.482,0.254c-0.143,0.084-0.279,0.158-0.397,0.235c-0.129,0.053-0.244,0.09-0.355,0.11
			c-0.078,0.013-0.153,0-0.236-0.057c-0.084-0.053-0.132-0.131-0.141-0.226c-0.008-0.109,0.029-0.229,0.117-0.358
			c0.052-0.073,0.102-0.136,0.152-0.2c0.057-0.065,0.126-0.115,0.176-0.17c0.063-0.045,0.11-0.091,0.158-0.116l0.373-0.256
			l-0.659-0.437l-0.104,0.102c-0.072,0.057-0.151,0.144-0.246,0.261c-0.104,0.114-0.204,0.251-0.303,0.396
			c-0.216,0.342-0.331,0.669-0.323,0.969C37.92,23.783,38.077,24.053,38.375,24.25"/>
		<polygon points="43.15,22.522 40.021,20.126 39.521,20.784 42.649,23.174 		"/>
		<path d="M44.237,21.2c0.198-0.218,0.368-0.436,0.502-0.656c0.158-0.228,0.248-0.48,0.285-0.715c0.037-0.255,0-0.516-0.126-0.783
			c-0.125-0.264-0.331-0.523-0.637-0.809c-0.318-0.284-0.602-0.464-0.873-0.562c-0.273-0.087-0.537-0.106-0.785-0.055
			c-0.24,0.055-0.469,0.168-0.679,0.343c-0.206,0.167-0.407,0.359-0.602,0.584l-0.539,0.589l2.938,2.638L44.237,21.2z
			 M41.895,18.749c0.158-0.15,0.294-0.259,0.442-0.314c0.131-0.061,0.266-0.071,0.396-0.042c0.145,0.01,0.291,0.066,0.439,0.156
			c0.158,0.099,0.326,0.216,0.479,0.365c0.374,0.341,0.587,0.649,0.61,0.928c0.045,0.286-0.072,0.56-0.323,0.845l-0.082,0.078
			L41.775,18.9L41.895,18.749z"/>
		<path d="M46.326,19.003l-0.442-1.18l0.841-0.738l1.125,0.59l0.699-0.604l-3.758-1.967l-0.485,0.411l1.451,3.969L46.326,19.003z
			 M45.323,16.309l0.875,0.47l-0.527,0.466L45.323,16.309z"/>
		<path d="M49.5,16.472c0.25-0.163,0.474-0.332,0.672-0.492c0.211-0.197,0.366-0.4,0.462-0.619c0.103-0.239,0.134-0.506,0.088-0.792
			c-0.048-0.279-0.171-0.589-0.404-0.959c-0.225-0.354-0.453-0.605-0.684-0.758c-0.241-0.167-0.49-0.253-0.742-0.272
			c-0.251-0.003-0.5,0.043-0.75,0.155c-0.241,0.103-0.482,0.236-0.737,0.396l-0.682,0.433l2.131,3.323L49.5,16.472z M47.91,13.493
			c0.186-0.125,0.348-0.186,0.504-0.21c0.146-0.011,0.281,0.009,0.397,0.065c0.134,0.053,0.263,0.148,0.374,0.281
			c0.133,0.138,0.261,0.287,0.371,0.473c0.268,0.428,0.384,0.789,0.344,1.074c-0.042,0.27-0.231,0.501-0.55,0.709l-0.095,0.064
			l-1.506-2.361L47.91,13.493z"/>
		<path d="M73.895,36.159c0.216,0.026,0.349,0.378,1.199,0.385c0.655,0.005,0.735-0.397,0.816-0.417
			c0.045-0.015,0.083-0.018,0.123-0.074c-0.04-0.068-0.422-0.21-0.951-0.232c-0.695-0.015-1.297,0.197-1.354,0.259
			C73.77,36.112,73.814,36.146,73.895,36.159"/>
		<path d="M72.243,32.615c0.145-0.022,0.303-0.077,0.442-0.087c0.198-0.013,0.349,0,0.516,0.112
			c0.037,0.044,0.153,0.259,0.457,0.256c0.145,0.003,0.321-0.059,0.391-0.232c0.09-0.064,0.293,0.07,0.338,0.028
			c0.131-0.028,0.201-0.135,0.257-0.225c0.053-0.087,0.142-0.222,0.053-0.33c-1.459-0.806-2.615,0.421-2.615,0.421
			C72.027,32.674,72.09,32.656,72.243,32.615"/>
		<path fill="#075F61" d="M86.637,63.371c-0.057,0.118,0.012,0.095,0.165,0.042c0.135-0.042,0.567-0.125,0.825-0.065
			c0.121,0.023,0.231,0.291,0.612,0.252c0.133,0,0.324-0.201,0.389-0.354c0.1-0.103,0.465-0.204,0.509-0.217
			c0.121-0.028,0.151-0.212-0.015-0.311C87.58,62.101,86.637,63.371,86.637,63.371"/>
		<path fill="#075F61" d="M51.086,64.13c-0.125,0.185-0.187,0.399-0.187,0.516c0.007,0.12,0.196,0.083,0.24,0.056
			c0.065-0.033,0.1-0.065,0.133-0.078c0.05-0.014,0.098-0.012,0.098-0.012s0.045,0.078,0.098,0.103
			c0.065,0.04,0.133,0.036,0.133,0.036s0.117,0.004,0.183-0.048c0.043-0.024,0.128-0.12,0.146-0.267
			c0.017-0.147,0.158-0.185,0.271-0.34c0.141-0.178,0.301-0.525,0.234-0.539C51.816,63.466,51.415,63.638,51.086,64.13"/>
		<path fill="#075F61" d="M88.82,66.587c0.198,0.02,0.339,0.345,1.144,0.31c0.613-0.019,0.682-0.398,0.751-0.429
			c0.043-0.015,0.086-0.015,0.109-0.07c-0.031-0.051-0.4-0.19-0.899-0.169c-0.658,0-1.224,0.236-1.27,0.295
			C88.701,66.55,88.734,66.574,88.82,66.587"/>
		<path d="M124.145,61.857c-0.118-0.45-0.576-0.708-1.021-0.578c-0.026,0.004-0.08,0.025-0.108,0.035
			c-0.327,0.107-5.356,1.685-7.661,2.414c0.722-4.415,0.949-10.595-0.918-16.115c0.565-0.105,1.07-0.214,1.52-0.309
			c0.356-0.096,0.608-0.399,0.636-0.75c0.609-6.944-1.327-15.149-5.324-22.487c-4.358-8.018-10.651-14.021-17.732-16.918
			C93.19,6.993,92.774,7.11,92.55,7.429c-0.399,0.54-0.984,1.325-1.649,2.194c-4.05-2.723-10.551-5.665-19.616-5.665
			c-8.831,0-15.091,2.727-19.038,5.338c-0.562-0.73-1.042-1.387-1.394-1.867c-0.231-0.318-0.647-0.436-0.998-0.279
			c-7.076,2.898-13.365,8.9-17.725,16.918c-3.998,7.338-5.941,15.543-5.333,22.487c0.037,0.351,0.282,0.654,0.643,0.75
			c0.427,0.094,0.91,0.203,1.45,0.295c-1.91,5.476-1.745,11.569-1.083,15.897c-0.144-0.049-0.284-0.076-0.394-0.107
			c-6.497-1.653-6.502-1.653-6.676-1.653c-0.38,0-0.712,0.246-0.811,0.607c-1.63,6.021-0.567,27.904,11.636,43.869
			c6.294,8.232,14.498,13.74,24.512,16.499c-0.613,1.255-1.282,2.516-1.849,3.5c-0.122,0.22-0.122,0.479-0.023,0.702
			c0.113,0.22,0.371,0.213,0.607,0.246c3.141,0.458,9.146,1.96,9.587,1.984c0.348,0.066,0.742-0.065,0.994-0.344
			c0.536-0.577,1.112-2.145,1.686-4.223c1.694,0.134,3.438,0.199,5.216,0.199h0.028c1.465,0,2.906-0.05,4.306-0.138
			c0.57,2.04,1.147,3.593,1.665,4.162c0.254,0.279,0.655,0.411,0.988,0.344c0.449-0.023,6.458-1.526,9.608-1.984
			c0.234-0.033,0.48-0.026,0.592-0.246c0.111-0.223,0.1-0.482-0.017-0.702c-0.56-0.971-1.224-2.211-1.82-3.457
			c9.667-2.738,17.708-8.285,23.984-16.567C124.36,89.398,125.522,66.759,124.145,61.857 M115.06,65.503
			c0.165,0,0.262,0.047,0.356,0.163c0.175,0.248-0.205,0.996-0.546,1.648c-0.497,0.971-1.016,1.967-0.37,2.346
			c0.083,0.044,0.199,0.065,0.348,0.065c0.1,0,0.212,0,0.327-0.016c0.125-0.014,0.256-0.017,0.376-0.017
			c0.429,0,0.628,0.126,0.706,0.467c0.137,0.567-0.116,0.891-0.555,1.371c-0.195,0.205-0.478,0.438-0.783,0.684
			c-0.781,0.618-1.647,1.316-1.429,2.028c0.089,0.308,0.291,0.457,0.482,0.592c0.187,0.125,0.338,0.231,0.371,0.485
			c0.029,0.234-0.648,1.051-1.417,1.886c-0.171-0.284-0.422-0.509-0.736-0.665c0-0.007-0.028-0.014-0.028-0.014l-0.185-0.073
			c-0.033-0.013-0.055-0.023-0.092-0.04c0.482-2.923,0.735-6.023,0.468-7.817c-0.016-0.083-0.023-0.159-0.042-0.241
			c-0.055-0.708-0.599-0.735-0.673-0.096c0,0.052-0.014,0.114-0.014,0.186c-0.12,1.672-0.624,5.085-1.219,8.163
			c-0.399,0.218-0.757,0.569-1.048,0.963c-1.233-1.997-1.448-2.652-1.392-2.835c0.073-0.239,0.239-0.319,0.452-0.412
			c0.203-0.097,0.43-0.198,0.581-0.487c0.344-0.659-0.393-1.506-1.038-2.258c-0.27-0.29-0.51-0.575-0.65-0.81
			c-0.29-0.476-0.543-0.886-0.299-1.463c0.111-0.239,0.277-0.348,0.535-0.348c0.194,0,0.399,0.053,0.612,0.108
			c0.259,0.071,0.502,0.133,0.673,0.071c0.456-0.161,0.473-0.668,0.345-1.297c-0.062-0.329-0.178-0.709-0.291-1.066
			c-0.22-0.712-0.456-1.507-0.228-1.727c0.242-0.226,0.571-0.041,0.934,0.186c0.27,0.167,0.558,0.338,0.844,0.338
			c0.107,0,0.218-0.024,0.313-0.071c0.368-0.197,0.534-0.964,0.647-1.732c0.024-0.13,0.024-0.225,0.053-0.303
			c0.148-0.67,0.396-1.023,0.752-1.06l0.109,0.015h0.057c0.53,0.125,0.585,0.867,0.585,1.189c0,0.075-0.013,0.19-0.026,0.331
			c-0.064,0.758-0.103,1.52,0.225,1.772c0.12,0.104,0.274,0.142,0.452,0.142c0.158,0,0.322-0.036,0.499-0.089
			c0.093-0.024,0.185-0.061,0.277-0.088C114.625,65.587,114.871,65.503,115.06,65.503 M113.993,78.876
			c0.328,0,0.591,0.281,0.591,0.607c0,0.346-0.263,0.625-0.591,0.625c-0.354,0-0.635-0.279-0.635-0.625
			C113.358,79.158,113.639,78.876,113.993,78.876 M110.996,85.472c0.114,0.126,0.336,0.205,0.604,0.283
			c0.563,0.153,0.918,0.299,0.859,0.801c-0.09,0.612-0.514,0.833-1.008,1.087c-0.244,0.137-0.602,0.248-0.982,0.366
			c-0.938,0.306-2.012,0.65-2.049,1.389c-0.021,0.319,0.122,0.53,0.243,0.722c0.135,0.194,0.229,0.337,0.171,0.583
			c-0.046,0.226-0.904,0.742-2.555,1.536c0.031-0.136,0.056-0.292,0.066-0.436c0.008-0.339-0.066-0.652-0.215-0.921
			c1.536-2.692,2.81-5.63,3.121-7.391c0.201-0.693-0.155-0.93-0.436-0.346c-0.524,1.535-2.047,4.269-3.633,6.879
			c-0.21-0.082-0.437-0.13-0.677-0.13c-0.419,0-0.861,0.14-1.284,0.351c-0.277-1.669-0.254-2.216-0.145-2.333
			c0.156-0.201,0.343-0.211,0.572-0.233c0.223-0.017,0.479-0.037,0.722-0.243c0.547-0.499,0.161-1.558-0.184-2.48
			c-0.135-0.366-0.261-0.725-0.319-0.988c-0.104-0.565-0.195-1.027,0.24-1.473c0.124-0.126,0.249-0.193,0.397-0.193
			c0.24,0,0.514,0.2,0.756,0.366c0.22,0.173,0.411,0.303,0.613,0.303c0.74,0,0.812-1.112,0.894-2.188
			c0.038-0.742,0.095-1.58,0.386-1.681c0.304-0.145,0.55,0.158,0.813,0.484c0.268,0.356,0.549,0.715,0.973,0.665
			c0.43-0.046,0.842-0.713,1.224-1.396c0.07-0.11,0.12-0.196,0.156-0.26c0.39-0.575,0.737-0.831,1.078-0.721l0.103,0.04l0.113,0.073
			c0.386,0.319,0.177,0.981,0.06,1.266c-0.028,0.083-0.074,0.178-0.131,0.311c-0.336,0.675-0.646,1.387-0.424,1.736
			c0.221,0.379,0.701,0.393,1.174,0.402c0.532,0.003,0.874,0.043,0.964,0.356c0.078,0.292-0.54,0.854-1.094,1.347
			C111.358,84.142,110.513,84.896,110.996,85.472 M106.91,94.048c0,0.341-0.268,0.622-0.6,0.622c-0.338,0-0.619-0.281-0.619-0.622
			c0-0.333,0.281-0.6,0.619-0.6C106.642,93.448,106.91,93.716,106.91,94.048 M101.654,98.444c0.048,0.178,0.245,0.324,0.467,0.482
			c0.472,0.334,0.765,0.595,0.527,1.042c-0.288,0.554-0.767,0.6-1.312,0.683c-0.248,0.022-0.633,0.022-1.056,0
			c-0.236-0.01-0.474-0.02-0.707-0.02c-0.663,0-1.457,0.07-1.692,0.621c-0.135,0.294-0.068,0.54-0.02,0.76
			c0.062,0.226,0.098,0.402-0.048,0.612c-0.129,0.209-1.372,0.394-2.594,0.523c0.035-0.327-0.015-0.64-0.141-0.946l-0.075-0.167
			c2.449-2.028,4.775-4.454,5.689-6.052c0.434-0.567,0.171-0.917-0.296-0.466c-1.112,1.357-3.813,3.665-6.385,5.687
			c-0.25-0.09-0.532-0.143-0.863-0.143c-0.178,0-0.379,0.013-0.581,0.053c0.396-2.346,0.65-3.004,0.803-3.096
			c0.198-0.123,0.391-0.09,0.622-0.03c0.231,0.07,0.5,0.122,0.76,0.017c0.687-0.268,0.687-1.396,0.687-2.384
			c0-0.402-0.005-0.775,0.038-1.041c0.08-0.545,0.167-1.028,0.729-1.307c0.095-0.038,0.186-0.07,0.281-0.07
			c0.321,0,0.547,0.346,0.747,0.645c0.158,0.228,0.285,0.426,0.461,0.498c0.071,0.021,0.145,0.035,0.219,0.035
			c0.579,0,0.994-0.904,1.37-1.789c0.292-0.675,0.64-1.45,0.973-1.457c0.309,0,0.416,0.281,0.57,0.753
			c0.123,0.391,0.279,0.856,0.705,0.953c0.397,0.103,1.018-0.388,1.625-0.883c0.089-0.078,0.172-0.155,0.218-0.196
			c0.598-0.436,1.028-0.517,1.304-0.286l0.033,0.045l0.095-0.073l-0.081,0.09l0.02,0.01c0.35,0.445-0.1,1.057-0.309,1.303
			c-0.062,0.047-0.146,0.142-0.25,0.236c-0.538,0.532-1.059,1.077-0.984,1.493c0.075,0.422,0.527,0.605,0.955,0.774
			c0.502,0.205,0.801,0.333,0.791,0.659c-0.031,0.317-0.812,0.622-1.496,0.898C102.441,97.322,101.403,97.738,101.654,98.444
			 M95.2,105.225c0,0.329-0.282,0.602-0.61,0.602c-0.349,0-0.61-0.272-0.61-0.602c0-0.336,0.261-0.612,0.61-0.612
			C94.917,104.613,95.2,104.889,95.2,105.225 M91.853,106.226c0.411,0.353,0.65,0.584,0.519,0.888
			c-0.128,0.289-0.973,0.321-1.699,0.357c-1.094,0.043-2.22,0.082-2.22,0.831c0,0.195,0.143,0.388,0.293,0.617
			c0.329,0.48,0.522,0.823,0.145,1.155c-0.221,0.208-0.464,0.305-0.763,0.305c-0.213,0-0.444-0.047-0.707-0.105
			c-0.266-0.062-0.61-0.2-0.975-0.341c-0.597-0.231-1.265-0.496-1.777-0.496c-0.311,0-0.539,0.078-0.703,0.25
			c-0.216,0.246-0.24,0.496-0.263,0.725c-0.023,0.224-0.043,0.4-0.25,0.554c-0.007,0.015-0.058,0.048-0.264,0.048
			c-0.896,0-3.252-0.618-4.425-0.939c0.29-0.093,0.596-0.183,0.903-0.299c3.359-1.112,7.008-2.871,8.598-4.228
			c0.588-0.419,0.462-0.82-0.125-0.545c-1.623,0.988-5.384,2.408-8.689,3.495c-0.279,0.1-0.607,0.203-0.906,0.299
			c-0.005-0.048-0.005-0.077-0.005-0.126c1.493-2.823,2.053-3.479,2.261-3.517c0.228-0.057,0.4,0.052,0.59,0.178
			c0.179,0.12,0.375,0.269,0.667,0.269h0.043c0.741-0.033,1.109-1.087,1.441-2.027c0.125-0.372,0.252-0.725,0.382-0.966
			c0.27-0.487,0.494-0.915,1.119-0.981c0.502-0.05,0.64,0.314,0.785,0.878c0.057,0.259,0.116,0.495,0.259,0.615
			c0.116,0.095,0.243,0.153,0.384,0.153c0.505,0,1.117-0.652,1.704-1.266c0.525-0.567,1.103-1.155,1.38-1.069
			c0.311,0.103,0.33,0.419,0.31,0.918c-0.015,0.417-0.03,0.888,0.339,1.127c0.1,0.063,0.22,0.086,0.373,0.086
			c0.439,0,1.059-0.224,1.457-0.389c0.125-0.033,0.219-0.082,0.281-0.093c0.68-0.213,1.091-0.16,1.286,0.116l0.051,0.086
			c0,0.008,0.007,0.017,0.013,0.02l0.008,0.05c0.185,0.516-0.444,0.938-0.735,1.103c-0.06,0.035-0.165,0.082-0.299,0.135
			c-0.693,0.326-1.37,0.664-1.437,1.084C91.146,105.611,91.51,105.926,91.853,106.226 M71.771,103.574
			c-2.46,0-4.792-2.273-5.999-5.396c0.864-0.362,3.573-1.475,3.899-1.383c0.361,0.187,1.202,0.549,1.202,0.572v3.879
			c0,0.57,1.775,0.66,2.166,0.123c0.012-0.012,0-0.946,0-0.946c-0.257,0.263-0.978,0.326-1.082,0.01
			c-0.014-0.013-0.014-2.704-0.014-2.752c0,0,0.2,0.062,0.403-0.062c0.128-0.078,0.176-0.179,0.279-0.228
			c0.156-0.048,0.257,0.055,0.442-0.045c0.086-0.047,0.208-0.181,0.286-0.214c0.113-0.048,0.321,0.023,0.426-0.034
			c0.102-0.038,0.199-0.158,0.296-0.188c0.149-0.06,0.333,0.082,0.633-0.208c0.662,0.265,1.147,0.052,1.329,0.052
			c0.018,0,1.362,0.605,1.896,0.931C76.768,101.188,74.446,103.574,71.771,103.574 M73.051,113.367c-0.858,0.028-1.352,0.003-2.22,0
			c-0.52-1.026-0.736-5.59-0.221-7.274c1.167,0,1.479-0.04,2.44,0C73.529,107.809,73.65,112.318,73.051,113.367 M69.568,113.395
			c-1.19-0.04-2.11-0.129-2.271-0.271c-0.608-0.537-1.355-4.926,0.028-6.684c0.131-0.168,0.928-0.281,2.028-0.344
			C68.73,107.852,68.547,111.473,69.568,113.395 M70.175,83.653c0.753-0.48,2.18-1.237,3.089,0.078
			c0.572,0.826,1.347,2.708,1.558,3.982c-2.072-0.462-4.177-0.209-5.424,0c-0.149-0.449,1.55-3.107,2.507-4.105
			c-0.911,0-1.634,0.949-2.18,1.645C69.427,85.286,68.792,84.701,70.175,83.653 M69.967,80.531c0-0.954,0.853-1.724,1.905-1.724
			c1.034,0,1.882,0.77,1.882,1.724c0,0.097-0.008,0.189-0.027,0.29c-0.599-0.193-1.205-0.296-1.852-0.296
			c-0.644,0-1.265,0.104-1.875,0.303C69.974,80.73,69.967,80.627,69.967,80.531 M76.038,93.342
			c-0.758-0.627-1.831-1.089-2.496-1.063c-0.64,0.017-1.718,0.53-1.718,0.53l-0.008-4.305c0,0,0.452-0.321,0.855,0
			c-0.022-0.006-0.014,2.105-0.007,2.105c1.387,0.052,4.677,0.209,6.059,0.705c0.05,0.687-0.003,2.02-0.025,2.401
			C78.061,93.639,77.005,93.49,76.038,93.342 M78.61,94.612c-0.082,0.693-0.211,1.372-0.361,2.016
			c-0.776-0.296-2.043-0.737-2.115-0.729c-0.386,0.075-0.621,0.075-0.965-0.095c-0.723-0.424-0.944-1.224-1.627-1.799
			c-0.731,0-1.651,0.462-2.063,0.397c-0.42-0.056-0.351-0.427-0.351-0.427c0.078-0.045,0.517-0.213,0.53-0.226
			c0.379-0.397,1.315-0.723,1.86-0.778c0,0,0.944,0.083,2.088,1.147C76.367,94.251,78.08,94.537,78.61,94.612 M71.036,90.67
			l-0.013,1.267c0,0-1.352,0.259-2.336,1.443c-0.313,0.248-2.669,0.984-3.753,1.317c-0.075-0.691-0.123-1.41-0.123-2.142
			c0-0.126,0.003-0.908,0.003-1.029C65.787,91.124,69.199,90.65,71.036,90.67 M69.249,93.987c0.607-1.016,1.774-1.272,1.774-1.272
			c-0.015,0,0,0.605,0,0.588c0,0.003-0.364,0.223-0.527,0.462c0,0.402,0.181,0.951,0.595,1.111c0.554,0.226,1.383,0.02,1.97-0.073
			c0.176,0.216,0.637,1.039,0.987,1.333c-0.284,0.208-0.454,0.078-0.567,0.113c-0.128,0.045-0.131,0.133-0.244,0.187
			c-0.098,0.043-0.24,0.028-0.349,0.057c-0.115,0.045-0.126,0.156-0.246,0.218c-0.191,0.095-0.288-0.025-0.471,0.045
			c-0.14,0.06-0.12,0.238-0.434,0.14c-0.258-0.08-0.55-0.209-0.73-0.311c-0.653-0.337-0.906-0.65-1.282-0.672
			c-0.559-0.021-3.435,0.893-4.29,1.254c-0.18-0.576-0.263-1.023-0.377-1.648C65.91,95.199,69.166,94.108,69.249,93.987
			 M74.446,106.106c1.038,0.082,1.891,0.188,2.065,0.371c1.171,1.154,0.843,5.718-0.108,6.587c-0.136,0.12-0.949,0.208-2.04,0.278
			C75.113,111.457,75.254,108.776,74.446,106.106 M74.488,104.123c3.236-1.661,5.563-6.252,5.563-11.664
			c0-5.347-2.251-9.675-5.422-11.273l1.387,0.023c0,0,0.653-0.035,0.708-0.321c0.035-0.284-0.59-0.459-0.59-0.459l-1.532-0.431
			c-0.015-0.056-0.028-0.113-0.042-0.171l1.312-0.843c0,0,0.53-0.389,0.416-0.65c-0.133-0.261-0.753-0.068-0.753-0.068l-1.557,0.494
			c-0.05-0.05-0.109-0.105-0.161-0.156l0.743-1.405c0,0,0.213-0.512-0.033-0.68c-0.231-0.165-0.613,0.226-0.613,0.226l-1.132,1.245
			c-0.095-0.038-0.185-0.053-0.27-0.077l-0.221-1.652c0,0-0.106-0.562-0.397-0.562s-0.386,0.562-0.386,0.562L71.295,77.9
			c-0.089,0.013-0.185,0.037-0.288,0.063l-1.112-1.219c0,0-0.425-0.397-0.658-0.229c-0.236,0.171,0.012,0.683,0.012,0.683
			l0.718,1.354c-0.072,0.057-0.135,0.12-0.203,0.186l-1.561-0.495c0,0-0.562-0.133-0.684,0.12c-0.116,0.268,0.344,0.595,0.344,0.595
			l1.304,0.826c-0.015,0.072-0.04,0.138-0.046,0.208l-1.571,0.437c0,0-0.624,0.175-0.581,0.459c0.047,0.286,0.707,0.321,0.707,0.321
			l1.445-0.023c-3.196,1.598-5.519,5.926-5.519,11.273c0,5.4,2.323,9.982,5.53,11.639c-1.23,0.199-2.233,0.545-2.82,0.974
			c-2.71-2.404-4.815-6.707-5.277-11.868c0,0,1.435-0.445,1.515-2.639c0.06-1.824-1.515-2.583-1.515-2.583
			c1.069-6.885,5.411-12.81,10.837-12.81c5.444,0,9.474,5.6,10.611,12.765c0.03-0.05-1.355,0.598-1.275,2.65
			c0.1,2.267,1.362,2.661,1.362,2.617c-0.429,5.347-2.561,9.646-5.224,11.966C76.801,104.716,75.778,104.34,74.488,104.123
			 M55.138,105.547c1.598,1.357,5.237,3.116,8.591,4.228c0.259,0.088,0.505,0.167,0.747,0.25c-1.239,0.331-3.321,0.858-4.152,0.858
			c-0.213,0-0.258-0.035-0.268-0.043c-0.203-0.155-0.221-0.344-0.24-0.57c-0.021-0.22-0.046-0.476-0.266-0.705
			c-0.173-0.173-0.404-0.266-0.696-0.266c-0.521,0-1.196,0.266-1.784,0.505c-0.362,0.151-0.71,0.276-0.984,0.356
			c-0.259,0.046-0.484,0.09-0.7,0.09c-0.303,0-0.541-0.09-0.767-0.308c-0.373-0.351-0.191-0.677,0.153-1.156
			c0.151-0.232,0.279-0.429,0.279-0.612c0-0.751-1.125-0.794-2.211-0.846c-0.743-0.021-1.568-0.055-1.701-0.342
			c-0.133-0.301,0.111-0.536,0.519-0.89c0.344-0.303,0.708-0.619,0.648-1.044c-0.068-0.419-0.736-0.758-1.433-1.076
			c-0.135-0.068-0.239-0.118-0.304-0.154c-0.281-0.15-0.899-0.572-0.745-1.081l0.077-0.156c0.205-0.291,0.613-0.336,1.304-0.133
			c0.058,0.03,0.149,0.057,0.271,0.101c0.407,0.151,1.019,0.388,1.458,0.388c0.155,0,0.279-0.037,0.371-0.08
			c0.373-0.239,0.356-0.728,0.344-1.137c-0.017-0.512-0.005-0.814,0.301-0.908c0.298-0.088,0.86,0.496,1.389,1.044
			c0.583,0.638,1.194,1.277,1.701,1.277c0.142,0,0.263-0.055,0.379-0.153c0.145-0.116,0.204-0.344,0.266-0.613
			c0.15-0.554,0.296-0.93,0.788-0.876c0.579,0.072,0.808,0.409,1.113,0.988c0.131,0.236,0.254,0.588,0.394,0.961
			c0.324,0.931,0.702,1.995,1.438,2.025h0.032c0.301,0,0.504-0.14,0.678-0.263c0.185-0.133,0.344-0.243,0.587-0.191
			c0.211,0.045,0.803,0.755,2.442,3.869c-0.399-0.123-0.786-0.241-1.2-0.386c-3.309-1.087-7.066-2.507-8.692-3.495
			C54.677,104.728,54.547,105.128,55.138,105.547 M49.318,101.145c-2.561-1.999-5.216-4.271-6.315-5.626
			c-0.46-0.451-0.718-0.102-0.292,0.466c0.921,1.606,3.271,4.05,5.734,6.085c-0.169,0.373-0.208,0.73-0.12,1.107
			c-1.267-0.143-2.599-0.331-2.743-0.552c-0.142-0.209-0.098-0.386-0.042-0.612c0.043-0.22,0.115-0.466-0.015-0.76
			c-0.236-0.55-1.033-0.621-1.692-0.621c-0.24,0-0.482,0.01-0.719,0.02c-0.407,0.022-0.796,0.022-1.047,0
			c-0.545-0.083-1.021-0.129-1.312-0.683c-0.245-0.447,0.051-0.708,0.527-1.042c0.221-0.158,0.416-0.304,0.471-0.482
			c0.254-0.707-0.792-1.122-1.811-1.533c-0.68-0.276-1.456-0.581-1.49-0.898c-0.021-0.326,0.286-0.454,0.788-0.659
			c0.426-0.169,0.872-0.352,0.963-0.774c0.078-0.413-0.444-0.961-0.991-1.493c-0.108-0.095-0.188-0.189-0.245-0.236
			c-0.21-0.248-0.665-0.858-0.315-1.303l0.073-0.072c0.288-0.244,0.704-0.143,1.294,0.286c0.055,0.042,0.128,0.118,0.228,0.196
			c0.545,0.444,1.111,0.895,1.523,0.895c0.037,0,0.072-0.002,0.105-0.012c0.422-0.097,0.575-0.562,0.703-0.953
			c0.141-0.472,0.263-0.753,0.59-0.753l0,0c0.309,0.007,0.642,0.782,0.951,1.457c0.384,0.885,0.794,1.789,1.375,1.789l0,0
			c0.075,0,0.141-0.013,0.219-0.035c0.168-0.072,0.303-0.27,0.46-0.498c0.196-0.299,0.427-0.645,0.738-0.645
			c0.088,0,0.183,0.032,0.276,0.07c0.565,0.279,0.64,0.762,0.733,1.307c0.039,0.266,0.039,0.638,0.039,1.041
			c0,0.988,0,2.117,0.691,2.384c0.261,0.105,0.532,0.053,0.758-0.017c0.226-0.06,0.424-0.093,0.615,0.03
			c0.153,0.091,0.407,0.715,0.785,2.949c-0.16-0.03-0.309-0.043-0.449-0.043C49.958,100.925,49.611,101.018,49.318,101.145
			 M49.676,105.215c0,0.339-0.274,0.612-0.602,0.612c-0.344,0-0.615-0.272-0.615-0.612c0-0.333,0.271-0.608,0.615-0.608
			C49.401,104.606,49.676,104.882,49.676,105.215 M34.153,83.492c0.308,1.761,1.575,4.699,3.117,7.391
			c-0.152,0.269-0.224,0.582-0.215,0.921c0.011,0.143,0.038,0.299,0.069,0.436c-1.648-0.794-2.513-1.31-2.554-1.536
			c-0.064-0.246,0.034-0.389,0.167-0.583c0.13-0.191,0.266-0.402,0.245-0.722c-0.039-0.738-1.107-1.083-2.05-1.389
			c-0.378-0.118-0.739-0.229-0.981-0.366c-0.492-0.254-0.919-0.475-1.006-1.087c-0.071-0.502,0.293-0.648,0.855-0.801
			c0.271-0.078,0.49-0.156,0.609-0.283c0.478-0.577-0.363-1.33-1.171-2.068c-0.553-0.492-1.175-1.054-1.082-1.347
			c0.083-0.313,0.423-0.353,0.96-0.356c0.462-0.01,0.94-0.023,1.161-0.402c0.217-0.349-0.088-1.061-0.408-1.736
			c-0.07-0.133-0.123-0.228-0.151-0.311c-0.106-0.285-0.296-0.939,0.081-1.266v0.003l0.115-0.077l0.072-0.04
			c0.362-0.11,0.705,0.133,1.104,0.721c0.026,0.063,0.085,0.15,0.141,0.26c0.389,0.683,0.802,1.35,1.221,1.396
			c0.436,0.05,0.715-0.309,0.981-0.665c0.257-0.326,0.497-0.628,0.826-0.484c0.278,0.102,0.337,0.939,0.392,1.681
			c0.063,1.076,0.138,2.188,0.886,2.188l0,0c0.189,0,0.373-0.13,0.601-0.303c0.236-0.166,0.505-0.366,0.756-0.366
			c0.146,0,0.278,0.066,0.407,0.193c0.431,0.446,0.338,0.908,0.235,1.473c-0.055,0.263-0.193,0.622-0.324,0.988
			c-0.338,0.922-0.727,1.982-0.18,2.48c0.238,0.206,0.504,0.226,0.722,0.243c0.231,0.022,0.412,0.032,0.573,0.233
			c0.09,0.116,0.133,0.664-0.161,2.333c-0.407-0.211-0.846-0.351-1.28-0.351c-0.233,0-0.46,0.048-0.67,0.13
			c-1.586-2.61-3.098-5.344-3.627-6.879C34.313,82.563,33.955,82.799,34.153,83.492 M37.353,94.048c0,0.341-0.262,0.622-0.6,0.622
			c-0.35,0-0.613-0.281-0.613-0.622c0-0.333,0.264-0.6,0.613-0.6C37.091,93.448,37.353,93.716,37.353,94.048 M29.656,80.108
			c-0.338,0-0.616-0.279-0.616-0.625c0-0.326,0.278-0.607,0.616-0.607s0.602,0.281,0.602,0.607
			C30.257,79.829,29.994,80.108,29.656,80.108 M36.99,74.339c-0.096-0.396-0.657-0.801-0.96-0.948
			c0.086-0.111,0.17-0.216,0.275-0.324c0.82-0.969,1.929-2.292,1.821-3.819c-0.026-0.29-0.083-1.198-0.919-1.597
			c-0.062-0.03-0.115-0.057-0.184-0.075c0.584-0.141,1.21-0.297,1.894-0.48c0.629-0.157,1.176-0.598,1.507-1.211
			c0.384-0.724,0.447-1.611,0.169-2.446c-0.419-1.22-1.184-3.92-1.072-7.122c3.059-0.601,7.497-0.913,10.954-0.903
			c0.741,0,0.929-0.856,0.183-0.856c-0.677,0-8.029-0.015-10.997-0.015c0.073-0.454,0.156-0.914,0.266-1.377
			c0.356,0.01,1.394,0,1.394,0v-0.815h2.986v0.711l1.35,0.002c0,0,0.372-0.848,0.372-1.555c0-0.393-0.174-0.798-0.174-0.798h2.334
			c0,0-0.178,0.333-0.178,0.77c-0.006,0.727,0.382,1.593,0.382,1.593l1.309-0.011v-0.47h1.395l0.005,0.508l0.755-0.002l0.008-0.749
			h1.643v0.773h3.683l0.033,3.744c0,0-3.144-2.146-6.726,0.071c-1.085,0.67-2.12,1.746-2.541,3.052
			c-0.568,1.761-0.133,3.196,0.053,3.62c0.514,1.141,1.696,2.043,2.319,2.261c0.524,0.486,0.921,1.225,1.322,1.43
			c0.261,0.135,0.568-0.144,0.851-0.144c0.155,0,0.25,0.236,0.492,0.388c0.311,0.185,0.44,0.231,0.542,0.318
			c0.198,0.161,0.487,0.373,0.8,0.422c0.599,0.088,0.974-0.34,1.292-0.72c0.14-0.165,0.476,0.502,0.445,0.521
			c-1.119,0.363-1.771,1.507-2.218,2.286c-0.446,0.773-1.531,3.26-1.531,3.26s-2.544-1.206-3.069-1.149
			c-2.892,0.176-4.292,1.744-4.292,1.744s-1.535-1.285-3.681-0.504c-1.762,0.648-1.643,2.144-1.643,2.144l-1.124,1.278l0.244,3.437
			l-0.597,0.281c-0.037-0.878-0.12-1.987-0.58-2.796c-0.389-0.684-0.958-0.868-1.755-0.575c-0.202,0.08-0.412,0.219-0.602,0.375
			C36.17,76.497,37.13,74.919,36.99,74.339 M36.352,64.555c-0.116-0.771-0.583-1.153-1.436-1.153c-0.447,0-0.991,0.245-1.333,0.419
			c-0.062,0.019-0.122,0.053-0.175,0.078c-0.082-1.103-0.596-2.592-1.732-2.958l-0.477-0.062c-0.074,0-0.142,0-0.229,0l0,0
			l-0.045,0.009c-0.5,0.052-0.916,0.28-1.233,0.674c-0.15,0.187-0.251,0.396-0.347,0.618c-0.503-4.047-0.515-9.457,1.22-14.279
			c2.873,0.471,6.125,0.863,6.96,0.926c0.024,0.002,0.039,0.002,0.069,0.002c0.213,0,0.416-0.077,0.56-0.226
			c0.179-0.163,0.228-0.348,0.347-0.645c0.13-0.312,0.805-1.873,1.279-2.385c0.424-0.443,1.348-0.31,1.568,0.438
			c0.035,0.122,0.028,0.255-0.095,0.408c-5.283,6.874-3.111,15.064-2.25,17.568c0.131,0.387,0.114,0.786-0.057,1.101
			c-0.108,0.193-0.266,0.34-0.446,0.381c-0.806,0.205-1.541,0.398-2.22,0.562C36.376,65.54,36.424,65.026,36.352,64.555
			 M53.676,26.876c0.133,0.354,0.594,0.86,0.904,1.19c0.171,0.165,0.087,0.251-0.191,0.213c-0.452-0.074-1.107-0.14-1.36-0.067
			c-0.274,0.079-0.756,0.558-1.082,0.894c-0.183,0.188-0.274,0.137-0.229-0.138c0.06-0.431,0.11-1.042,0.023-1.294
			c-0.089-0.277-0.595-0.836-0.906-1.164c-0.162-0.18-0.097-0.259,0.168-0.212c0.424,0.068,1.061,0.143,1.396,0.053
			c0.297-0.093,0.711-0.487,1.011-0.806c0.213-0.223,0.299-0.191,0.258,0.117C53.603,26.047,53.543,26.575,53.676,26.876
			 M56.516,35.442c0.133,0.363,0.599,0.876,0.906,1.192c0.169,0.167,0.095,0.249-0.175,0.208c-0.459-0.059-1.114-0.13-1.373-0.059
			c-0.261,0.084-0.753,0.55-1.081,0.889c-0.174,0.195-0.263,0.134-0.228-0.137c0.053-0.425,0.111-1.042,0.026-1.288
			c-0.104-0.271-0.6-0.828-0.913-1.177c-0.169-0.167-0.09-0.247,0.171-0.2c0.431,0.071,1.044,0.136,1.39,0.049
			c0.304-0.089,0.717-0.477,1.024-0.8c0.196-0.235,0.292-0.189,0.241,0.111C56.448,34.624,56.39,35.136,56.516,35.442
			 M63.958,20.528c0.138,0.357,0.604,0.872,0.919,1.19c0.165,0.171,0.086,0.245-0.183,0.208c-0.452-0.067-1.116-0.137-1.365-0.055
			c-0.266,0.071-0.768,0.548-1.082,0.877c-0.183,0.195-0.27,0.141-0.236-0.126c0.057-0.431,0.115-1.033,0.015-1.297
			c-0.086-0.279-0.579-0.827-0.905-1.163c-0.153-0.177-0.09-0.25,0.176-0.218c0.433,0.073,1.058,0.139,1.39,0.061
			c0.304-0.091,0.723-0.484,1.022-0.81c0.209-0.225,0.29-0.185,0.248,0.117C63.895,19.709,63.844,20.227,63.958,20.528
			 M65.087,32.559c0.14,0.369,0.606,0.882,0.913,1.208c0.175,0.162,0.091,0.246-0.183,0.211c-0.444-0.069-1.107-0.142-1.372-0.061
			c-0.263,0.075-0.751,0.553-1.079,0.889c-0.183,0.186-0.263,0.124-0.224-0.141c0.056-0.432,0.111-1.039,0.018-1.293
			c-0.091-0.278-0.59-0.834-0.906-1.179c-0.166-0.165-0.091-0.241,0.17-0.197c0.427,0.07,1.054,0.141,1.392,0.046
			c0.304-0.082,0.711-0.48,1.014-0.797c0.221-0.232,0.308-0.197,0.258,0.118C65.014,31.747,64.964,32.274,65.087,32.559
			 M70.793,33.19c-0.07,0-0.841-0.114-1.777,1.117c-0.387,0.502-0.211,1.382,0.017,1.325c0.239-0.058,1.044-0.73,1.024-0.64
			c-0.01,0.184-0.125,0.444-0.258,0.647c-0.108,0.166-0.775,0.545-0.961,0.853c-0.241,0.4-0.014,0.912-0.047,0.983
			c-0.088,0.118-0.297,0.196-0.353,0.138c-0.263-0.268-0.351-1.27,0.047-1.77c0.161-0.189-0.57-0.716-0.434-1.492
			c0.106-0.585,0.377-0.815,0.718-1.048c0.561-0.393,0.966-0.454,1.56-0.924c1.105-0.875,1.498-1.249,2.384-1.336
			c0.284-0.031,1.033,0.258,1.239,0.319c1.129,0.322,1.807,0.138,2.175-0.024c0.209-0.09,0.471-0.262,0.758-0.212
			c0.224,0.046,0.369,0.348,0.341,1.028c-0.389-0.357-1.808-0.337-1.912,0.144c-0.088,0.43,0.218,2.203,0.104,2.35
			c-0.205,0.268-0.375,0.198-0.761,0.068c-0.211-0.068-0.474,0.117-0.474,0.173c0.015,0.109,0.344,0.152,0.474,0.212
			c0.198,0.107,0.436,0.21,0.597,0.198c0.155,0,0.341-0.173,0.505-0.248c0.113-0.061,0.209-0.068,0.246-0.122
			c0.062-0.124-0.118-0.222-0.12-0.515c-0.021-0.708-0.058-1.53-0.033-1.593c0.02-0.021,0.07-0.077,0.14-0.033
			c0.088,0.058,0.142,0.181,0.374,0.199c0.133,0.004,0.231-0.104,0.294-0.188c0.042-0.056,0.375-0.245,0.464-0.174
			c0.077,0.046,0,0.174-0.015,0.387c0,0.121,0.11,0.813,0.098,0.943c-0.075,0.96-0.505,1.955-1.141,2.962
			c-0.179,0.261-0.269,0.544-0.484,0.751c-0.269,0.266-1.096,0.708-2.801-0.647c-0.433-0.342-0.673-0.803-0.821-0.803
			c-0.106,0-0.145,0.304-0.145,0.525c0,0.279,0.314,0.737,0.733,1.11c0.266,0.253,0.813,0.577,1.089,0.668
			c0.467,0.163,1.029,0.334,1.475,0.497c1.044,0.399,2.771,1.154,3.566,1.937c0.906,0.9,1.686,2.461,2.274,4.497
			c0.324,1.1,0.996,4.046,1.698,6.766c0.655,2.543,1.352,4.904,1.347,4.883c-2.27,1.797-1.694,4.906-1.763,5.455
			c-0.169,0.012-1.958-11.565-3.265-17.167c-0.025-0.112-0.09-0.255-0.291-0.235c-0.206,0-0.243,0.188-0.243,0.294
			c0,0.094,1.683,16.932,1.829,19.419c-2.417-0.247-3.104,1.509-3.884,1.315c0,0-0.494,0.028-0.509-0.862
			c0-0.137-0.311-10.438-0.604-16.558c-0.12-2.496-0.13-5.171-0.254-7.686c-0.01-0.229-0.105-0.51-0.288-0.242
			c-0.502,1.086-1.711,1.26-2.784,1.035c-0.331-0.108-1.22-0.253-2.482-1.664c-0.213-0.19-0.461-0.033-0.411,0.175
			c0.4,1.442,1.732,2.3,2.648,2.713c0.728,0.286,1.116,0.322,1.692,0.349c0.075,1.194,0.137,2.335,0.137,3.826
			c-1.149-1.129-2.73-1.198-3.824-1.856c-1.039-0.608-1.769-1.646-2.592-3.026c0,0-0.186-0.344-0.411-0.21
			c-0.223,0.12-0.077,0.482-0.077,0.482c0.384,1.405,1.089,3.097,2.541,4.173c0.655,0.48,2.168,1.115,2.84,1.48
			c1.221,0.661,1.537,2.195,1.537,2.195c-0.854,1.899-2.37,3.514-3.985,5.279c-1.598,1.779-6.797,5.863-6.663,4.925
			c0.17-1.204,0.181-4.058,0.181-4.86c0-4.092-0.224-5.677-0.161-8.601c-0.788,1.414-1.93,1.667-2.276,1.901
			c0,0.08,0.105,12.733,0.104,13.1c-0.532-0.146-1.468-1.655-1.887-2.853c-0.068-0.088,0.035-17.94,0.143-17.993l1.461-0.743
			c0.053,1.09,0.035,2.813,0.05,3.442c1.526-1.902,2.525-3.296,4.243-4.207c1.267-0.669,3.598-1.062,4.549-1.55
			c0.652-0.573,1.465-3.516,1.588-4.427C70.945,33.567,70.985,33.171,70.793,33.19 M68.896,29.333
			c0.404-1.646,1.802-2.264,3.109-2.936c0.341-0.173,0.652-0.5,0.87-0.879c0.279-0.464,0.153-1.182-0.259-0.788
			c-0.254,0.235-0.853,0.716-1.568,1c-0.873,0.344-1.096,0.501-1.832,1.242c-0.083-0.397-0.11-1.984,0.592-3.145
			c0.216-0.357,0.524-0.64,0.865-0.854c-0.223-1.077,0.006-1.67,0.148-1.702c0.228-0.045,0.783,0.707,1.117,0.998
			c0.331,0.283,0.698-0.071,0.456-0.314c-0.066-0.073-0.196-0.246-0.323-0.391c0.073-0.246,0.086-0.477,0.207-0.431
			c0.103,0.066,0.663,0.57,0.841,1.361c0.088,0.046,0.52,0.1,0.992,0.502c1.447,1.221,2.479,3.65,3.069,7.125
			c-0.086-0.038-0.232-0.365-0.554-0.365c-0.244,0-0.675,0.183-0.783,0.231c-0.484,0.228-1.266,0.177-1.879-0.048
			c-0.167-0.058-0.925-0.29-1.441-0.232c-0.928,0.108-1.623,0.414-2.533,1.29c-0.645,0.608-1.496,0.903-1.496,0.903
			c-0.042-0.249-0.145-0.399-0.042-0.663c0.095-0.24,0.353-0.544,0.359-0.732C68.825,30.061,68.77,29.856,68.896,29.333
			 M87.442,32.559c0.146,0.369,0.604,0.882,0.91,1.208c0.173,0.162,0.095,0.246-0.175,0.211c-0.454-0.069-1.104-0.142-1.367-0.061
			c-0.263,0.075-0.762,0.553-1.078,0.889c-0.186,0.186-0.282,0.124-0.239-0.141c0.053-0.432,0.12-1.039,0.028-1.293
			c-0.106-0.278-0.599-0.834-0.915-1.179c-0.154-0.165-0.093-0.241,0.163-0.197c0.434,0.07,1.071,0.141,1.403,0.046
			c0.303-0.082,0.723-0.48,1.016-0.797c0.208-0.232,0.294-0.197,0.243,0.118C87.375,31.747,87.327,32.274,87.442,32.559 M90.9,51.4
			l1.076,0.003v1.745h1.038l0.017-3.391l0.46-1.243l0.396,1.243l0.008,1.693l0.587-0.368l0.542,0.357v-1.666l0.412-1.272
			l0.386,1.277l0.005,3.362h0.758c0-0.031,0-0.125,0-0.694c0-0.776,0.814-1.118,0.814-1.118s0.802,0.41,0.802,1.118v0.694h0.987
			v-0.554h0.788v-0.707l1.038-0.499l1.024,0.491v1.313c0,0,1.287,0,1.726,0c0.12,0.47,0.21,0.914,0.288,1.359
			c-2.835,0-10.487,0.015-11.173,0.015c-0.743,0-0.55,0.856,0.176,0.856c3.537-0.009,8.105,0.314,11.165,0.949
			c0.103,2.659-0.48,5.123-1.114,7.148c-0.374,1.17-0.359,2.092,0.03,2.799c0.464,0.846,1.328,1.176,1.935,1.34
			c0.139,0.035,0.416,0.119,0.797,0.213c-0.518,0.445-0.572,1.129-0.584,1.384c-0.112,1.527,0.995,2.85,1.819,3.819
			c0.09,0.108,0.188,0.213,0.274,0.324c-0.303,0.146-0.863,0.552-0.96,0.948c-0.143,0.581,0.806,2.158,1.758,3.528
			c-0.192-0.156-0.396-0.296-0.599-0.375c-0.8-0.293-1.371-0.108-1.754,0.575c-0.473,0.845-0.554,1.999-0.599,2.89
			c-0.265-0.15-0.718-0.316-1.137-0.316c-0.049,0-0.11,0.01-0.16,0.02c-0.918,0.076-1.287,0.891-1.423,1.16
			c0,0.01,0,0.015-0.012,0.028c-0.191-0.123-0.454-0.256-0.838-0.331c-0.404-0.103-0.707-0.12-0.926-0.128
			c3.028-2.32,3.897-6.601,1.878-9.958c-2.019-3.373-6.245-4.606-9.728-2.983c-0.659,0.092-1.293-0.26-1.293-0.26
			s0.375-0.754,0.735-1.572c0.249-0.578,0.462-1.257,0.54-2.264c0.037-0.533-0.038-1.122-0.089-1.752
			c-0.083-0.875,0.011-2.463-0.481-3.591c-1.249-2.883-3.634-3-3.634-3s-0.27-2.124-0.446-2.827c0,0,0.737-0.008,1.904-0.008v-0.825
			l0.787,0.013V51.4z M97.036,32.559c0.138,0.369,0.612,0.882,0.908,1.208c0.163,0.162,0.096,0.246-0.185,0.211
			c-0.451-0.069-1.104-0.142-1.365-0.061c-0.266,0.075-0.76,0.553-1.077,0.889c-0.183,0.186-0.266,0.124-0.234-0.141
			c0.055-0.432,0.118-1.039,0.021-1.293c-0.091-0.278-0.579-0.834-0.91-1.179c-0.165-0.165-0.095-0.241,0.171-0.197
			c0.431,0.07,1.061,0.141,1.385,0.046c0.319-0.082,0.725-0.48,1.031-0.797c0.206-0.232,0.292-0.197,0.238,0.118
			C96.962,31.747,96.911,32.274,97.036,32.559 M107.223,66.488c-0.601-0.154-1.19-0.313-1.706-0.454
			c-0.657-0.183-0.837-0.392-0.915-0.531c-0.147-0.27-0.119-0.794,0.097-1.487c0.848-2.686,3.302-10.495-2.735-17.819
			c0.241-0.871,1.19-1.101,1.642-0.621c0.476,0.512,0.996,2.057,1.498,2.816c0.12,0.192,0.704,0.437,0.918,0.437
			c0.021,0,3.886-0.454,6.734-0.913c1.617,4.635,1.634,9.879,1.164,13.949c-0.065-0.107-0.139-0.209-0.207-0.302
			c-0.325-0.404-0.736-0.626-1.252-0.674l-0.036-0.009c-1.635-0.143-2.331,1.704-2.435,3.019c-0.051-0.025-0.116-0.06-0.173-0.078
			c-0.337-0.174-0.883-0.419-1.328-0.419c-0.847,0-1.323,0.382-1.435,1.153C106.954,65.17,107.061,65.851,107.223,66.488
			 M102.17,90.976c-0.052,0.047-0.117,0.102-0.171,0.16c-0.018-0.048-0.051-0.113-0.077-0.168c-0.163-0.357-0.405-0.897-0.748-1.188
			c-0.642-0.552-1.225-0.579-1.839-0.062c-0.735,0.623-1.195,1.691-1.538,2.519c-0.138-0.171-0.344-0.355-0.59-0.512
			c-0.888-0.968-0.74-2.231-0.713-2.686c0.011-0.48-0.374-0.47-0.743,0.215c-1.166,2.191-1.68,3.026-2.968,4.324
			c-0.916,0.915-3.136,2.092-3.581,1.893c-0.088-0.039,2.233-2.892,2.491-5.316c-0.034-0.559-0.406-0.504-0.733,0
			c-2.492,3.894-5.317,5.444-6.812,6.012c0.211-1.084,0.351-2.18,0.429-3.3c0.011,0.048-1.792-0.311-1.792-2.368
			c0-1.875,1.498-2.13,1.516-2.092c-0.74-5.608-3.249-10.303-6.617-12.874c0.113-1.549-0.118-3.965,1.985-6.306
			c0.5-0.57,2.346-1.682,3.299-2.053c0.324,0.685,0.737,1.167,1.127,1.803c0.311,0.617,0.138,1.395-0.223,2.496
			c-0.74,2.04-0.993,2.899-1.008,3.721c-0.012,0.449,0.326,1.197,0.648,1.034c0.818-2.789,1.916-6.171,1.761-7.312
			c-0.214-1.23-1.337-1.708-1.43-2.994c-0.057-0.241-0.057-0.517-0.033-0.771c0.008-0.012,0.015-0.027,0.021-0.041
			c0.09-0.915,0.828-1.931,0.984-2.143c0.718-0.338,1.766-0.958,2.346-1.466c0.569-0.505,1.344-1.175,1.585-1.587
			c0.015-0.025,0.03-0.035,0.053-0.063c0.035-0.067,0.055-0.129,0.088-0.205c0.176-0.582-0.434-1.415-0.382-1.478
			c0.075-0.061,0.775,0.271,0.936,1.078c0.06,0.377,0.06,0.538-0.038,0.695c0.369,0.201,1.014,0.401,1.762,1.117
			c0.334,0.291,0.472,0.882,0.421,1.299c-0.742-0.142-1.523,0.238-1.571,0.496c-0.103,0.544,0.1,1.174,0.121,1.683
			c0,0.142,0.047,0.412-0.01,0.476c-0.344,0.298-0.989-0.19-1.022,0.208c0,0.128,0.264,0.074,0.397,0.141
			c0.146,0.081,0.281,0.271,0.469,0.265c0.125,0,0.223-0.144,0.419-0.31c0.12-0.11,0.189-0.083,0.272-0.176
			c0.075-0.049,0.022-0.279,0-0.417c-0.053-0.394-0.101-1.032-0.083-1.325c0-0.066,0.083-0.075,0.14-0.032
			c0.15,0.11,0.279,0.083,0.359,0.073c0.096-0.018,0.208-0.105,0.261-0.183c0.045-0.059,0.261-0.431,0.248-0.303
			c-0.01,0.188,0.025,0.315,0.051,0.449c0.021,0.176,0.128,0.602,0.102,0.928c-0.08,0.877-0.218,1.512-0.936,2.828
			c-0.156,0.263-0.283,0.774-0.708,0.875c-1.342,0.341-2.846-0.795-3.648-1.653c0,0-0.512-0.446-0.628-0.793
			c-0.06-0.182,0.248-0.931,0.359-1.222c0.104-0.244-0.185-0.27-0.434-0.06c-0.221,0.175-0.374,0.644-0.374,0.644
			c-0.238,0.57-0.187,0.937-0.09,1.189c0.51,1.182,1.719,2.148,1.385,3.594c-0.555,2.888-0.748,9.658-1.925,9.658
			c-1.37,0-3.649-4.948-4.059-5.593c-0.507-0.773-1.401-0.406-0.767,0.785c0.353,0.685,2.592,6.177,4.857,6.375
			c0.793,0.07,1.104-0.476,1.412-1.531c0.456-1.525,0.904-5.567,1.596-9.976c0.066-0.433-0.122-0.885-0.183-1.157
			c0.742,0.666,1.867,0.92,3.066,1.091c0.22,0.033,0.459,0.033,0.704,0c-2.462,1.953-3.452,5.198-2.565,8.155l-0.023-0.017
			c0,0,1.214,4.098,0.926,6.059c-0.228,1.209-0.917,1.34-1.074,1.453c-0.487,0.328-0.336,0.74-0.276,0.787
			c0.146,0.191,0.317,0.086,0.996-0.183c1.44-0.557,6.459-2.875,11.102-2.59c0.123,0.017,0.274,0.048,0.409,0.086
			c0.168,0.05,0.344,0.135,0.512,0.211c0.317,0.161,0.577,0.449,0.787,0.813c0.159,0.284,0.272,0.568,0.335,0.763
			c0.086,0.283,0.175,0.555,0.263,0.81c0.055,0.245,0.112,0.48,0.164,0.73c-0.333,0.053-0.925,0.2-1.136,0.521
			C101.425,87.491,101.769,89.348,102.17,90.976 M91.585,74.878c-0.827,0.082-1.5-0.022-1.996-0.153
			c0.146-1.446,0.775-2.836,1.804-3.908C91.238,71.449,91.007,72.902,91.585,74.878 M99.057,73.067
			c-0.108-0.188-0.148-0.304-0.288-0.48c-1.651-2.321-3.445-3.203-4.422-3.52c2.404-0.668,5.013,0.097,6.667,2.015
			c-0.178,1.305-0.901,3.43-4.039,5.349c-0.928,0.559-1.776,0.944-2.574,1.201c-0.128-0.187-0.251-0.383-0.377-0.567
			c-0.158-0.266-0.314-0.53-0.467-0.803c-0.057-0.106-0.116-0.22-0.163-0.339c0.771-0.2,1.663-0.549,2.662-1.15
			c0.271-0.153,0.271-0.165,0.512-0.303c0.451-0.263-0.266-1.466-0.742-1.217c-0.252,0.133-0.252,0.14-0.51,0.286
			c-0.895,0.537-1.699,0.879-2.428,1.081c-0.648-2.225-0.259-4.187-0.118-4.753c0.982,0.282,3.446,1.221,4.976,3.54
			c0.143,0.228,0.263,0.439,0.413,0.655C98.489,74.512,99.385,73.601,99.057,73.067 M100.858,78.63
			c1.106-1.15,1.571-2.319,1.749-3.179c-0.021,1.575-0.622,3.125-1.712,4.321C100.906,79.462,100.903,79.084,100.858,78.63
			 M100.673,77.255c-0.015-0.09-0.04-0.191-0.066-0.286c-0.035-0.181-0.035-0.113-0.075-0.296c-0.05-0.336-0.24-0.263-0.597,0.115
			c-0.208,0.208-0.407,0.537-0.357,0.738c0.045,0.194-0.003,0.045,0.05,0.213c0.035,0.141,0.067,0.281,0.1,0.401
			c-0.377,0.308-0.803,0.618-1.304,0.914c-0.677,0.408-1.315,0.718-1.9,0.944c-0.413-0.382-0.845-0.813-1.269-1.3
			c0.733-0.246,1.528-0.61,2.393-1.141c3.116-1.942,3.833-4.368,3.98-5.651c0.018,0.025,0.038,0.058,0.053,0.083
			c0.254,0.431,0.449,0.87,0.602,1.315C102.238,73.797,102.334,75.443,100.673,77.255 M100.131,80.474
			c-0.213,0.167-0.437,0.319-0.683,0.476c-0.358,0.213-0.72,0.386-1.094,0.519c-0.218-0.148-0.505-0.353-0.821-0.605
			c0.472-0.203,0.971-0.456,1.501-0.787c0.351-0.209,0.67-0.434,0.942-0.663C100.068,79.886,100.113,80.238,100.131,80.474
			 M96.437,81.239c0.299,0.203,0.572,0.371,0.81,0.519c-0.394,0.042-0.771,0.073-1.127,0.12c-0.847,0-1.68-0.151-2.468-0.476
			C94.402,81.542,95.325,81.547,96.437,81.239 M91.753,80.238c-0.469-0.419-0.903-0.933-1.259-1.517
			c-0.025-0.04-0.04-0.073-0.062-0.118c0.728,0.319,1.907,0.648,3.461,0.417c0.453,0.507,0.939,0.964,1.402,1.36
			C93.63,80.772,92.421,80.504,91.753,80.238 M92.595,77.232c0.131,0.248,0.284,0.48,0.452,0.715
			c-1.317,0.193-2.351,0.005-3.033-0.226c-0.27-0.687-0.424-1.388-0.441-2.105c0.339,0.176,1.186,0.569,2.469,0.518
			c0.093,0.214,0.198,0.422,0.306,0.655C92.42,76.943,92.503,77.083,92.595,77.232 M86.012,48.061
			c1.074,5.42,1.405,7.931,1.405,7.931s-0.682,0-1.179,0.114c-0.065,0.068-0.625-4.364-1.434-7.61
			c-1.689-6.804-2.747-8.221-4.373-8.511c-0.705-0.115-0.968,0.257-1.096,0.29c-0.105-0.101-0.348-0.248-0.427-0.335
			c0,0,0.304-2.368,1.914-2.325C82.763,37.664,84.755,41.769,86.012,48.061 M61.11,90.505c0.053,1.641-1.98,2.361-1.98,2.361
			c-0.053,1.099,0.06,2.266,0.296,3.428c-1.352-0.46-4.462-1.914-7.153-6.14c-0.326-0.504-0.7-0.559-0.74,0
			c0.261,2.424,2.579,5.277,2.491,5.316c-0.451,0.199-2.659-0.978-3.583-1.893c-1.297-1.298-1.804-2.133-2.965-4.324
			c-0.366-0.685-0.756-0.695-0.743-0.215c0.025,0.517,0.214,2.104-1.162,3.098c-0.337-0.821-0.805-1.817-1.511-2.419
			c-0.61-0.517-1.197-0.491-1.839,0.062c-0.343,0.291-0.582,0.831-0.735,1.188c-0.033,0.055-0.063,0.12-0.08,0.168
			c-0.058-0.058-0.123-0.113-0.173-0.16c0.397-1.627,0.751-3.485,0.396-3.995c-0.246-0.356-0.923-0.499-1.227-0.541
			c0.047-0.126,0.095-0.261,0.146-0.406c0.08-0.259,0.183-0.525,0.259-0.818c0.615-1.344,1.448-2.305,2.868-2.218
			c2.108,0.14,4.268,0.861,4.682,0.93l0,0c4.339,1.207,6.159,2.073,6.516,2.106c0.529,0.066,0.489-0.304,0.329-0.831
			c-0.209-0.702-0.46-1.4,0.118-2.913c0.243-0.624,0.696-1.575,1.089-2.381c0.91-1.586,1.882-3.681,2.479-4.782
			c0.454-0.944,0.512-1.553,0.108-1.752c-0.514-0.165-1.164,1.008-1.538,1.772c-0.718,1.284-1.643,3.389-2.893,4.795
			c-0.504,0.499-0.677,0.439-1.33,0.279c-2.674-0.743-8.354-3.758-9.258-3.703c-0.968,0.05-1.944-0.235-2.695-0.867
			c-0.125,0.243-0.499,0.283-0.565,0.122c0.077-0.22,0.077-0.534,0.245-0.647c0.196-0.261,0.753-0.529,1.259-0.691
			c1.064-0.075,1.603,0.484,2.859,1.139c1.38,0.181,5.118,0.83,7.688,1.625c0.72,0.146,0.879-0.372,0.313-0.715l-0.471-0.299
			c0.788-2.281,1.582-4.005,2.907-6.049c0.893-1.368,1.852-0.988,3.337-1.727c1.285-0.525,1.957-1.381,2.933-2.154
			c3.028,2.711,3.911,6.99,4.479,9.228c-3.876,2.783-6.907,7.973-6.981,12.816C59.285,88.364,61.057,88.593,61.11,90.505
			 M45.695,79.563c-0.838-0.362-1.568-0.671-2.397-1.031c-1.029-0.429-2.188-0.876-3.196-1.333c0.234-0.256,0.293-0.447,1.008-0.512
			c0.173,0.188,1.37,0.945,2.319,0.885c1.227-0.091,3.681,1.34,4.454,1.681c1.212,0.547,2.538,1.15,3.734,1.91
			c-0.711,0.625-1.184,1.769-1.184,1.769s-3.651-1.089-5.738-1.633c-1.766-0.445-3.23-0.858-4.657-1.161
			c-0.073-0.229-0.306-1.845-0.15-1.804c0.519,0.111,3.643,1.179,3.643,1.179s1.5,0.529,1.99,0.703
			C46.326,80.504,46.696,79.985,45.695,79.563 M46.194,74.736c0.409-0.434,0.876-0.713,1.313-0.893
			c0.502-0.176,0.793-0.27,1.322-0.344c1.111,0.414,1.877,0.675,2.986,1.107c-0.215,0.458-0.341,0.844-0.471,1.092
			C49.604,75.31,48.133,75.092,46.194,74.736 M55.729,63.749c-0.266,0.091-0.05,0.382-0.146,1.368
			c-0.113,1.044-0.393,1.871-1.078,2.112c-0.371,0.091-0.514-0.268-0.722-0.428c-0.095-0.076-0.218,0.026-0.324-0.005
			c-0.076-0.059-0.05-0.224-0.121-0.26c-0.093-0.055-0.27,0.036-0.318,0.025c-0.053-0.025-0.106-0.081-0.12-0.144
			c-0.026-0.118-0.091-0.341-0.161-0.319c-0.083,0.077-0.193,0.158-0.246,0.201c-0.136,0.108-0.188,0.139-0.309,0.131
			c-0.122-0.023-0.165-0.111-0.291-0.255c-0.176-0.219-0.446-0.598-0.592-0.813c-0.123-0.184-0.296-0.49-0.553-0.522
			c-0.399-0.076-1.234-0.642-1.43-1.731c-0.037-0.107-0.063-0.232-0.082-0.425c-0.078-0.837,0.095-1.618,0.408-1.512
			c0.025,0,0.048,0.015,0.062,0.033c0-0.007,0-0.007,0,0v0.018c0.03,0.063,0.021,0.173,0.01,0.309
			c0.008,0.411,0.026,0.672,0.163,0.814c0.148,0.188,0.492,0.202,0.645,0.169c0.67-0.107,1.388,0.013,2.14,0.107
			c0.452,0.085,0.78-0.071,0.975-0.367c0.171-0.313,0.489-0.632,0.85-0.7c1.096-0.078,1.822,0.78,2.619,1.387
			c1.069,0.828,3.435,2.618,3.435,2.618c-0.707,0.917-2.08,1.784-3.21,2.2c-0.453-0.928-0.793-1.162-1.021-1.342
			C56.367,65.904,56.506,63.728,55.729,63.749 M65.099,67c0,0,2.094-0.406,3.499-1.374c0.904-0.619,2.609-2.094,3.455-4.661
			c0.294-0.839-0.128-1.472-0.704-0.516c-1.421,2.367-4.294,5.275-7.131,5.051c-0.798-0.069-1.357-0.699-1.668-1.131
			c4.296-2.06,8.064-6.043,11.399-10.602l-0.291,10.236c-0.445,0.818-0.973,1.749-1.486,2.413c-1.53,2.029-3.653,3.453-5.156,2.37
			C66.038,68.086,65.099,67,65.099,67 M61.099,29.23c0.005,0.277-0.988,1.182-0.988,1.182s0.161,5.416,0.11,5.396
			c-0.323,0.076-0.921,0.26-1.184,0.438c0,0.018,0.15-5.797,0.15-5.797s-0.84-0.844-0.85-1.132c-0.01-0.277,1.127-4.497,1.378-4.497
			C59.978,24.82,61.093,28.966,61.099,29.23 M60.822,36.712c0.25-0.077,0.491,0.116,0.531,0.329c0,0.145-0.111,0.33-0.117,0.475
			c-0.012,0.16,0.082,0.305,0.062,0.476c-0.023,0.164-0.179,0.382-0.209,0.525c-0.093,0.371-0.093,0.625-0.266,0.751
			c-0.248,0.212-1.825,1.206-2.899,1.442c-0.185,0.048-0.369,2.061-0.389,2.25c-0.065,0.923-0.017,1.861-0.077,2.781
			c-0.088,1.2-0.035,2.561-0.254,3.728c-0.169,0.94-1.586,1.604-2.505,1.604c-0.55,0,0.386-4.649,0.449-4.998
			c0.456-2.171,0.871-4.309,1.866-6.326C57.753,38.228,59.156,37.109,60.822,36.712 M93.5,8.955
			c13.835,6.074,22.288,23.973,21.471,36.848c-0.347,0.075-0.742,0.144-1.14,0.224l-0.854,0.134l-0.852,0.152
			c-2.017,0.323-4.196,0.603-5.503,0.759c-0.045-1.29-0.175-2.594-0.381-3.899l-0.142-0.838l-0.152-0.858
			c-2.399-11.661-10.42-23.026-17.315-26.082c0.625-0.833,1.382-1.817,2.104-2.792C91.753,11.291,92.782,9.926,93.5,8.955
			 M71.284,5.633c8.521,0,14.708,2.799,18.582,5.366c-0.155,0.194-0.31,0.397-0.464,0.598c-1.016,1.339-2.068,2.729-2.778,3.682
			c-0.163,0.218-0.208,0.503-0.133,0.759c0.077,0.212,0.567,1.014,0.776,1.284c0.717,0.91,2.063,1.933,1.518,2.766
			c-0.145,0.248-0.359,0.363-0.59,0.389c-1.99-1.878-8.027-6.23-16.367-6.23c-7.387,0-12.821,3.429-15.403,5.44
			c-0.408,0.284-0.695,0.54-0.715,0.54c-0.093,0-0.527-0.327-0.469-0.769c0.045-0.423,0.452-0.7,0.725-0.989
			c0.211-0.232,0.424-0.461,0.61-0.697c0.53-0.68,0.691-1.835,0.189-2.493c-0.717-0.951-1.748-2.343-2.783-3.682
			c-0.229-0.307-0.472-0.625-0.7-0.932C57.038,8.219,62.972,5.633,71.284,5.633 M28.418,45.803
			C27.603,32.928,36.06,15.029,49.892,8.955c0.727,0.971,1.759,2.335,2.765,3.648c0.727,0.975,1.478,1.958,2.102,2.792
			c-6.898,3.055-14.922,14.42-17.305,26.092l-0.311,1.689c-0.194,1.301-0.323,2.605-0.372,3.896
			c-1.309-0.156-3.52-0.443-5.557-0.763l-1.705-0.294C29.126,45.937,28.75,45.877,28.418,45.803 M27.854,69.693
			c0.12,0,0.249,0.003,0.365,0.017c0.308,0.022,0.543,0.022,0.683-0.049c0.621-0.366,0.155-1.311-0.333-2.26
			c-0.009-0.024-0.021-0.059-0.041-0.086c-0.338-0.652-0.731-1.401-0.539-1.648c0.093-0.116,0.189-0.163,0.35-0.163
			c0.194,0,0.443,0.083,0.68,0.174c0.258,0.088,0.529,0.178,0.783,0.178c0.168,0,0.329-0.038,0.447-0.142
			c0.332-0.252,0.299-1.014,0.224-1.772c-0.013-0.141-0.021-0.256-0.021-0.331c0-0.315,0.051-1.051,0.56-1.183l0.203-0.021
			c0.348,0.037,0.585,0.399,0.737,1.06c0.021,0.078,0.032,0.172,0.056,0.303c0.123,0.768,0.271,1.535,0.649,1.732
			c0.093,0.047,0.194,0.071,0.304,0.071c0.29,0,0.573-0.172,0.846-0.338c0.361-0.226,0.693-0.412,0.932-0.186
			c0.239,0.22-0.007,1.015-0.218,1.727c-0.329,1.039-0.647,2.118,0.057,2.363c0.154,0.062,0.404,0,0.658-0.071
			c0.212-0.055,0.416-0.108,0.625-0.108c0.254,0,0.422,0.108,0.527,0.348c0.242,0.577,0,0.987-0.297,1.463
			c-0.149,0.235-0.384,0.521-0.644,0.81c-0.655,0.751-1.385,1.599-1.046,2.258c0.146,0.29,0.378,0.391,0.58,0.487
			c0.211,0.093,0.389,0.173,0.452,0.412c0.057,0.155-0.096,0.717-1.382,2.835c-0.356-0.449-0.767-0.836-1.233-1.052
			c-0.609-3.145-1.111-6.536-1.06-8.259c-0.062-0.639-0.476-0.546-0.544,0.167c-0.32,1.749-0.166,4.948,0.316,7.987
			c-0.091,0.037-0.178,0.063-0.273,0.113l-0.042,0.014c-0.32,0.156-0.563,0.381-0.742,0.665c-0.765-0.835-1.445-1.651-1.416-1.886
			c0.03-0.254,0.186-0.36,0.375-0.485c0.188-0.135,0.394-0.284,0.482-0.592c0.23-0.712-0.664-1.41-1.427-2.028
			c-0.312-0.246-0.601-0.479-0.783-0.684c-0.435-0.48-0.691-0.804-0.56-1.371C27.229,69.819,27.435,69.693,27.854,69.693
			 M55.59,126.115c0.496-0.505,1.146-1.739,1.766-3.076c0.593,0.153,1.194,0.293,1.791,0.421c-0.451,1.052-0.928,2.085-1.375,2.911
			C56.95,126.254,56.193,126.163,55.59,126.115 M61.012,126.923c-0.644-0.123-1.297-0.246-1.936-0.349
			c0.361-0.635,0.771-1.705,1.182-2.89c0.68,0.129,1.352,0.246,2.045,0.351C61.952,125.067,61.529,126.071,61.012,126.923
			 M64.281,127.729c-0.552-0.178-1.206-0.347-1.891-0.515c0.433-0.607,0.863-1.734,1.206-2.988c0.677,0.09,1.36,0.166,2.045,0.232
			C65.283,125.736,64.776,127.006,64.281,127.729 M79.41,127.729c-0.5-0.723-0.993-1.912-1.36-3.214
			c0.693-0.063,1.382-0.14,2.063-0.223c0.344,1.23,0.767,2.328,1.182,2.921C80.605,127.382,79.961,127.551,79.41,127.729
			 M82.672,126.923c-0.506-0.827-0.93-1.814-1.266-2.81c0.677-0.104,1.357-0.225,2.029-0.359c0.389,1.164,0.805,2.206,1.172,2.82
			C83.962,126.677,83.307,126.8,82.672,126.923 M88.1,126.115c-0.617,0.048-1.365,0.14-2.176,0.256
			c-0.449-0.808-0.926-1.806-1.37-2.84c0.614-0.131,1.201-0.271,1.786-0.412C86.937,124.434,87.6,125.609,88.1,126.115
			 M121.51,79.339c-1.425,6.915-4.522,17.011-11.213,25.831c-9.029,11.896-21.8,17.925-37.978,17.925h-0.028
			c-17.051-0.007-30.307-6.029-39.39-17.904c-6.572-8.596-9.467-18.402-10.742-25.115c-1.244-6.493-1.382-12.488-0.892-15.868
			c0.029-0.205,0.207-0.594,0.758-0.46c1.137,0.273,2.792,0.711,4.398,1.123c-0.079,0.174-0.105,0.377-0.103,0.602
			c0.023,0.964,0.564,2.002,0.995,2.788c-0.2,0-0.782,0.049-1.281,0.41c-0.736,0.542-0.651,1.44-0.608,1.735
			c0.162,1.519,1.506,2.618,2.479,3.424c0.112,0.09,0.232,0.193,0.334,0.273c-0.278,0.221-0.747,0.715-0.769,1.101
			c-0.032,0.489,0.839,1.517,1.846,2.509c-0.837,0.162-1.466,0.896-1.466,1.771c0,0.675,0.357,1.262,0.895,1.58
			c-0.381,0.379-0.455,0.838-0.219,1.403c0.363,0.895,1.218,1.676,1.912,2.254c-0.292,0.117-0.763,0.386-1.059,0.834
			c-0.496,0.77-0.09,1.57,0.052,1.842c0.69,1.367,2.326,1.912,3.523,2.332c0.146,0.044,0.275,0.081,0.404,0.126
			c-0.094,0.17-0.184,0.377-0.184,0.393c-0.114,0.266-0.226,0.642-0.148,0.904c0.148,0.456,1.217,1.067,2.44,1.62
			c-0.334,0.336-0.535,0.781-0.535,1.277c0,0.991,0.786,1.786,1.76,1.822c-0.069,0.376,0.06,0.735,0.373,1.098
			c0.661,0.705,1.749,1.142,2.574,1.461c-0.243,0.214-0.582,0.64-0.693,1.134c-0.208,0.903,0.454,1.511,0.667,1.717
			c0.935,0.861,2.292,0.978,3.377,0.978c0.266,0,0.516,0,0.743-0.019c0.146,0,0.291,0,0.434-0.001
			c-0.012,0.023-0.013,0.065-0.027,0.093c-0.038,0.263-0.093,0.912,0.148,1.242c0.316,0.411,1.752,0.608,3.237,0.704
			c-0.166,0.274-0.268,0.588-0.268,0.938c0,0.998,0.815,1.811,1.816,1.811c0.126,0,0.244-0.015,0.364-0.031
			c-0.101,0.588,0.133,1.034,0.705,1.341c0.86,0.461,2.023,0.502,2.915,0.531c-0.169,0.283-0.337,0.814-0.277,1.303
			c0.098,0.918,0.936,1.274,1.202,1.39c0.394,0.176,0.826,0.259,1.303,0.259c1.034,0,2.07-0.396,2.9-0.722
			c0.141-0.05,0.276-0.096,0.402-0.145c0,0.019,0,0.048,0.017,0.082c0.051,0.259,0.203,0.905,0.555,1.131
			c0.14,0.086,0.338,0.123,0.648,0.123c1.324,0,4.124-0.803,5.449-1.226c0.216,1.505,0.796,2.847,1.847,3.506
			c0.628,0.399,8.769,0.368,9.377,0.043c0.313-0.183,0.59-0.432,0.832-0.738c0.003-0.005,0.008-0.005,0.023-0.018
			c0.499-0.67,0.855-1.602,1.063-2.621c1.372,0.434,4.042,1.186,5.304,1.186c0.306,0,0.529-0.037,0.648-0.133
			c0.347-0.218,0.507-0.845,0.559-1.101c0-0.036,0.01-0.08,0.013-0.116c0.128,0.06,0.259,0.106,0.402,0.155
			c0.83,0.328,1.871,0.723,2.9,0.723c0.476,0,0.911-0.086,1.307-0.251c0.265-0.118,1.094-0.484,1.204-1.402
			c0.058-0.492-0.11-1.018-0.29-1.31c0.893-0.013,2.07-0.06,2.919-0.509c0.629-0.336,0.847-0.846,0.675-1.526
			c0.171,0.043,0.351,0.085,0.549,0.085c0.991,0,1.804-0.81,1.804-1.811c0-0.359-0.104-0.679-0.283-0.961
			c1.402-0.101,2.704-0.296,2.997-0.69c0.243-0.337,0.186-0.979,0.151-1.252c-0.006-0.025-0.011-0.06-0.011-0.083
			c0.133,0.001,0.268,0.001,0.416,0.001c0.244,0.019,0.487,0.019,0.748,0.019c1.079,0,2.44-0.117,3.379-0.978
			c0.211-0.206,0.881-0.814,0.675-1.717c-0.113-0.494-0.45-0.919-0.708-1.134c0.846-0.319,1.917-0.757,2.578-1.461
			c0.338-0.373,0.454-0.753,0.364-1.147c0.812-0.18,1.419-0.895,1.419-1.772c0-0.432-0.17-0.845-0.441-1.162
			c1.33-0.587,2.546-1.239,2.704-1.734c0.074-0.263-0.042-0.638-0.146-0.904c-0.012-0.015-0.099-0.223-0.191-0.393
			c0.121-0.045,0.256-0.082,0.395-0.126c1.202-0.419,2.845-0.965,3.546-2.332c0.132-0.272,0.541-1.072,0.032-1.842
			c-0.286-0.449-0.747-0.718-1.05-0.834c0.688-0.579,1.548-1.36,1.914-2.254c0.211-0.516,0.161-0.948-0.154-1.327
			c0.625-0.286,1.068-0.917,1.068-1.656c0-0.943-0.746-1.723-1.679-1.797c0.992-0.989,1.855-1.994,1.82-2.482
			c-0.024-0.386-0.494-0.879-0.773-1.101c0.104-0.08,0.213-0.183,0.338-0.273c0.966-0.806,2.312-1.905,2.473-3.424
			c0.036-0.295,0.136-1.193-0.601-1.735c-0.502-0.361-1.087-0.41-1.287-0.41c0.436-0.786,0.97-1.823,0.991-2.788
			c0.003-0.188-0.019-0.348-0.053-0.498c0.259-0.083,0.505-0.163,0.683-0.221c1.477-0.467,2.95-0.928,4.049-1.278
			c0.602-0.189,1.021,0.183,1.051,0.465C123.098,66.854,122.958,72.352,121.51,79.339"/>
		<path d="M38.698,104.147c0.305-0.246,0.426-0.539,0.352-0.856c-0.078-0.308-0.268-0.667-0.618-1.089l-0.647-0.833l-2.736,2.19
			l0.591,0.738l1.13-0.903l0.051,0.085c0.291,0.354,0.587,0.619,0.885,0.796C38.031,104.457,38.366,104.42,38.698,104.147
			 M37.687,103.529c-0.134-0.053-0.289-0.178-0.446-0.381l-0.061-0.078l0.767-0.622l0.075,0.08c0.171,0.216,0.266,0.396,0.287,0.522
			c0.009,0.126-0.055,0.246-0.189,0.359C37.947,103.542,37.807,103.582,37.687,103.529"/>
		<path d="M40.717,107.35c0.386-0.392,0.602-0.805,0.619-1.244c0.023-0.432-0.178-0.864-0.594-1.287
			c-0.414-0.426-0.853-0.622-1.292-0.602c-0.419,0.019-0.836,0.226-1.234,0.622c-0.394,0.386-0.597,0.803-0.623,1.229
			c-0.022,0.447,0.178,0.875,0.599,1.292c0.352,0.366,0.715,0.565,1.084,0.602c0.063,0,0.131,0.005,0.196,0
			C39.904,107.943,40.328,107.739,40.717,107.35 M40.573,105.813c-0.068,0.254-0.258,0.529-0.552,0.838
			c-0.299,0.299-0.59,0.482-0.838,0.555c-0.084,0.019-0.158,0.025-0.236,0.019c-0.144-0.005-0.275-0.078-0.41-0.214
			c-0.187-0.19-0.249-0.402-0.179-0.644c0.075-0.261,0.257-0.541,0.551-0.83c0.305-0.299,0.595-0.499,0.847-0.564
			c0.082-0.021,0.149-0.021,0.231-0.021c0.136,0.021,0.271,0.086,0.409,0.218C40.584,105.358,40.644,105.581,40.573,105.813"/>
		<path d="M42.877,106.846l-0.744-0.677l-2.337,2.59l0.702,0.64l0.971-1.087l0.113,0.11c0.189,0.165,0.294,0.319,0.294,0.447
			c0,0.136-0.08,0.346-0.225,0.632l-0.349,0.615l0.711,0.642l0.472-0.908c0.126-0.24,0.188-0.433,0.207-0.599
			c0.008-0.106-0.019-0.211-0.078-0.333c0.167,0.062,0.316,0.083,0.445,0.066c0.205-0.013,0.376-0.091,0.509-0.25
			c0.254-0.283,0.301-0.582,0.148-0.915C43.559,107.529,43.276,107.193,42.877,106.846 M42.842,108.151
			c-0.135,0.136-0.283,0.184-0.409,0.156c-0.16-0.045-0.355-0.153-0.572-0.346l-0.033-0.036l0.652-0.732l0.051,0.039
			c0.203,0.191,0.346,0.359,0.416,0.512C43.01,107.865,42.972,107.995,42.842,108.151"/>
		<polygon points="44.405,111.892 46.161,109.558 45.419,108.986 43.298,111.772 45.255,113.262 45.601,112.8 		"/>
		<path d="M45.385,113.342l0.754,0.449l0.8-0.619l1.059,0.648l-0.188,0.988l0.861,0.519l0.547-3.761l-0.767-0.46L45.385,113.342z
			 M48.115,113.262l-0.735-0.434l0.953-0.733L48.115,113.262z"/>
		<polygon points="53.701,113.914 52.547,117.216 53.443,117.535 54.603,114.233 		"/>
		<polygon points="57.331,115.68 57.502,115.141 55.068,114.401 54.049,117.745 56.523,118.51 56.689,117.944 55.121,117.465
			55.402,116.551 56.837,117 57.003,116.459 55.572,116.019 55.805,115.214 		"/>
		<polygon points="59.565,117.991 58.741,115.456 57.792,115.243 56.95,118.623 57.728,118.822 58.307,116.531 59.19,119.185
			60.066,119.389 60.897,116 60.111,115.806 		"/>
		<polygon points="64,120.103 64.931,120.246 65.426,116.786 64.494,116.643 		"/>
		<path d="M66.916,116.954l-1.809,3.335l0.878,0.086l0.451-0.901l1.24,0.121l0.26,0.979l0.999,0.09l-1.127-3.616L66.916,116.954z
			 M66.688,118.967l0.527-1.066l0.31,1.157L66.688,118.967z"/>
		<polygon points="73.181,117.269 72.355,118.412 71.553,117.269 70.449,117.269 71.793,119.156 71.793,120.761 72.735,120.761
			72.735,119.156 74.144,117.269 		"/>
		<polygon points="88.965,117.148 87.974,114.404 87.083,114.73 88.28,118.021 90.578,117.18 90.383,116.634 		"/>
		<path d="M90.533,113.37l0.075,3.786l0.805-0.346l-0.048-1.013l1.139-0.507l0.705,0.729l0.915-0.409l-2.762-2.601L90.533,113.37z
			 M91.337,115.228l-0.053-1.199l0.825,0.866L91.337,115.228z"/>
		<path d="M95.667,110.685c-0.313,0.052-0.678,0.221-1.125,0.514l-0.868,0.574l1.926,2.918l0.785-0.521l-0.798-1.21l0.093-0.057
			c0.377-0.246,0.668-0.512,0.873-0.798c0.201-0.317,0.189-0.639-0.039-0.999C96.289,110.776,96.011,110.635,95.667,110.685
			 M95.807,112.055c-0.066,0.131-0.221,0.272-0.42,0.412l-0.09,0.06l-0.542-0.83l0.08-0.053c0.228-0.16,0.414-0.231,0.556-0.241
			c0.12-0.005,0.224,0.063,0.331,0.219C95.838,111.802,95.863,111.949,95.807,112.055"/>
		<path d="M96.843,109.681l0.845,3.687l0.718-0.5l-0.25-0.984l1.011-0.73l0.836,0.563l0.81-0.585l-3.234-1.982L96.843,109.681z
			 M98.696,110.84l-0.691,0.49l-0.294-1.161L98.696,110.84z"/>
		<polygon points="100.943,107.232 100.588,106.81 98.369,108.653 98.728,109.079 99.483,108.457 101.365,110.718 102.088,110.111
			100.203,107.855 		"/>
		<path d="M103.773,106.342c-0.11-0.014-0.225,0-0.348,0.062c0.069-0.165,0.116-0.311,0.116-0.442c0-0.205-0.073-0.381-0.211-0.524
			c-0.276-0.276-0.576-0.341-0.901-0.212c-0.311,0.123-0.66,0.375-1.052,0.75l-0.718,0.7l2.419,2.521l0.679-0.652l-1.006-1.051
			l0.117-0.098c0.176-0.174,0.336-0.277,0.464-0.261c0.138,0.017,0.337,0.098,0.604,0.272l0.599,0.382l0.685-0.642l-0.864-0.55
			C104.121,106.462,103.929,106.379,103.773,106.342 M102.81,106.532c-0.045,0.165-0.17,0.342-0.381,0.541l-0.046,0.042l-0.68-0.708
			l0.048-0.051c0.196-0.185,0.382-0.318,0.532-0.374c0.128-0.045,0.254-0.005,0.401,0.14
			C102.81,106.259,102.863,106.404,102.81,106.532"/>
		<polygon points="102.903,104.473 105.46,106.846 106.102,106.159 103.548,103.775 		"/>
		<path d="M104.506,102.669l1.772,3.36l0.555-0.682l-0.494-0.875l0.804-0.956l0.928,0.328l0.645-0.775l-3.622-1.094L104.506,102.669
			z M106.594,103.326l-0.539,0.658l-0.583-1.052L106.594,103.326z"/>
		<path d="M63.356,116.395c-0.126-0.043-0.281-0.08-0.442-0.104c-0.547-0.12-0.974-0.06-1.292,0.198
			c-0.304,0.236-0.519,0.635-0.626,1.184c-0.057,0.273-0.077,0.529-0.05,0.769c0.03,0.254,0.098,0.477,0.203,0.675
			c0.106,0.2,0.256,0.382,0.426,0.517c0.191,0.138,0.404,0.236,0.663,0.285c0.066,0.024,0.138,0.024,0.208,0.036l0.06,0.01
			c0.095,0.006,0.183,0.015,0.254,0.015c0.08,0.001,0.146,0.001,0.198,0.001c0.076,0,0.118,0,0.141-0.001l0.176-0.025l0.156-0.895
			l-0.362,0.098c-0.077,0.017-0.175,0.045-0.286,0.068c-0.088,0.013-0.191,0.013-0.313,0l-0.046-0.008
			c-0.123-0.032-0.213-0.075-0.291-0.143c-0.077-0.082-0.135-0.173-0.17-0.284c-0.048-0.131-0.078-0.266-0.078-0.431
			c0-0.171,0.023-0.354,0.067-0.539c0.035-0.165,0.075-0.328,0.116-0.48c0.037-0.123,0.095-0.216,0.146-0.283
			c0.042-0.057,0.089-0.086,0.161-0.117c0.078-0.023,0.186-0.023,0.313,0c0.082,0.021,0.151,0.043,0.218,0.06
			c0.063,0.032,0.128,0.057,0.193,0.08c0.062,0.03,0.106,0.055,0.155,0.09l0.046,0.025c0.03,0.022,0.057,0.039,0.085,0.052
			l0.299,0.186l0.146-0.859l-0.168-0.068C63.591,116.478,63.478,116.435,63.356,116.395"/>
		<path d="M51.418,114.063c0.057-0.116,0.115-0.194,0.198-0.259c0.048-0.04,0.102-0.07,0.178-0.076
			c0.082-0.02,0.173,0.006,0.303,0.063c0.07,0.03,0.123,0.06,0.191,0.096c0.07,0.04,0.125,0.068,0.181,0.111
			c0.045,0.052,0.1,0.08,0.141,0.113c0.025,0.025,0.053,0.055,0.07,0.078l0.296,0.271l0.316-0.81l-0.151-0.108
			c-0.072-0.047-0.165-0.102-0.281-0.173c-0.12-0.056-0.25-0.128-0.416-0.186c-0.512-0.225-0.951-0.238-1.305-0.06
			c-0.346,0.19-0.637,0.537-0.852,1.046c-0.103,0.256-0.163,0.512-0.186,0.745c-0.025,0.252,0,0.489,0.057,0.71
			c0.071,0.214,0.183,0.417,0.329,0.583c0.153,0.173,0.353,0.321,0.583,0.411c0.088,0.037,0.171,0.065,0.261,0.095
			c0.086,0.027,0.173,0.048,0.241,0.063c0.058,0.01,0.111,0.02,0.148,0.034l0.106,0.021c0.048,0.003,0.066,0.003,0.084,0.008h0.176
			l0.323-0.828l-0.371,0.013c-0.08,0.017-0.176,0.017-0.299,0.017c-0.035,0-0.076,0-0.113-0.023
			c-0.08-0.007-0.153-0.033-0.225-0.057c-0.12-0.048-0.209-0.113-0.264-0.196c-0.063-0.086-0.11-0.193-0.115-0.311
			c-0.019-0.128-0.019-0.278,0.021-0.428c0.025-0.169,0.08-0.346,0.16-0.528C51.272,114.343,51.345,114.19,51.418,114.063"/>
		<path d="M79.105,117.82c-0.051-0.388-0.237-0.64-0.545-0.745c-0.299-0.104-0.712-0.113-1.252-0.052l-1.041,0.125l0.42,3.47
			l0.939-0.114l-0.171-1.43l0.101-0.015c0.439-0.045,0.823-0.169,1.141-0.326C79.012,118.56,79.159,118.247,79.105,117.82
			 M78.049,118.358c-0.128,0.091-0.311,0.151-0.554,0.173l-0.116,0.028l-0.11-0.998l0.102-0.01c0.268-0.037,0.477-0.026,0.594,0.032
			c0.115,0.058,0.178,0.161,0.198,0.348C78.191,118.144,78.154,118.285,78.049,118.358"/>
		<path d="M82.816,117.748c-0.128-0.532-0.369-0.929-0.729-1.175c-0.349-0.254-0.825-0.304-1.396-0.171
			c-0.592,0.138-0.984,0.396-1.202,0.771c-0.203,0.373-0.243,0.841-0.12,1.387c0.13,0.535,0.371,0.933,0.73,1.184
			c0.367,0.245,0.834,0.303,1.398,0.16c0.492-0.111,0.86-0.316,1.084-0.612c0.055-0.05,0.084-0.106,0.106-0.16
			C82.904,118.749,82.946,118.285,82.816,117.748 M81.448,117.066c0.18,0.189,0.311,0.496,0.411,0.899
			c0.092,0.427,0.11,0.767,0.04,1.022c-0.032,0.07-0.062,0.143-0.11,0.196c-0.093,0.12-0.218,0.193-0.396,0.233
			c-0.264,0.066-0.472,0-0.642-0.169c-0.191-0.2-0.319-0.512-0.429-0.923c-0.08-0.406-0.098-0.743-0.023-1
			c0.015-0.08,0.05-0.146,0.103-0.213c0.088-0.113,0.216-0.189,0.399-0.228C81.059,116.825,81.275,116.88,81.448,117.066"/>
		<path d="M83.683,115.776l-0.961,0.283l1.004,3.355l0.905-0.272l-0.421-1.394l0.142-0.04c0.256-0.066,0.434-0.076,0.539-0.013
			c0.122,0.077,0.258,0.243,0.421,0.525l0.347,0.615l0.91-0.272l-0.519-0.875c-0.148-0.235-0.269-0.389-0.411-0.484
			c-0.075-0.07-0.193-0.106-0.314-0.125c0.126-0.109,0.239-0.213,0.292-0.339c0.093-0.17,0.102-0.368,0.042-0.556
			c-0.104-0.371-0.334-0.567-0.697-0.608C84.63,115.55,84.198,115.625,83.683,115.776 M84.77,116.498
			c0.063,0.187,0.02,0.334-0.07,0.426c-0.113,0.12-0.309,0.225-0.583,0.306l-0.06,0.015l-0.281-0.936l0.062-0.018
			c0.264-0.085,0.492-0.12,0.648-0.105C84.63,116.208,84.718,116.308,84.77,116.498"/>
	</g>
</g>
</svg>
